<svg width="74" height="59" viewBox="0 0 74 59" fill="none" xmlns="http://www.w3.org/2000/svg">
<path d="M42.3949 33.559C42.3949 33.559 40.9254 32.1541 41.1052 31.8079C41.285 31.4616 42.723 31.9238 42.723 31.9238C42.723 31.9238 41.7107 31.3773 41.9252 30.9441C42.1398 30.5109 43.6423 30.5887 44.3483 30.8526C44.3483 30.8526 43.6374 30.3924 44.0536 29.9613C44.4698 29.5302 45.909 29.6633 46.549 29.8499C47.189 30.0364 48.9668 31.0127 48.9668 31.0127C48.9668 31.0127 47.6395 29.1982 47.5658 28.2859C47.4921 27.3735 47.586 26.644 47.752 26.6004C47.918 26.5567 48.2114 27.0217 48.2114 27.0217C48.2114 27.0217 47.5767 25.579 47.5344 24.8593C47.4922 24.1396 47.7316 23.2268 47.9668 23.2128C48.202 23.1987 48.2554 23.4973 48.2554 23.4973C48.2554 23.4973 46.8451 20.9439 46.2811 19.4972C45.7171 18.0505 45.5528 16.578 45.631 16.3829C45.631 16.3829 44.7866 15.0496 44.895 13.6247C44.895 13.6247 42.9082 10.6189 42.6043 9.67463C42.4151 9.05957 42.3094 8.42184 42.2902 7.7786C42.2902 7.7786 41.5651 6.82134 41.8262 5.96856C41.8262 5.96856 37.9152 0.780929 38.6899 0.257096C39.4646 -0.266737 51.896 13.9714 57.4619 22.2557C63.0278 30.5399 63.5639 34.5502 63.6771 36.2973C63.7903 38.0443 62.6815 39.6002 62.6815 39.6002C62.6815 39.6002 63.245 40.9814 62.9973 41.7208C62.7495 42.4603 59.2952 42.0584 59.2952 42.0584L42.3949 33.559Z" fill="#FFBF3F"/>
<g opacity="0.2">
<path d="M56.4167 21.4344C56.2584 21.3222 55.4685 20.698 55.3841 21.0206C55.3647 21.267 55.4391 21.5117 55.5924 21.7056L55.6657 21.8147L55.5696 21.7252C52.3201 18.7796 54.3495 22.5564 55.2651 23.9493C55.6157 24.4931 56.0167 25.0026 56.463 25.4711L56.3839 25.546C55.9134 25.061 55.4496 24.523 54.8687 24.175C54.8278 24.1559 54.7462 24.1158 54.7217 24.1584C54.695 24.3779 54.8189 24.6442 54.8842 24.8649C55.2448 25.8353 55.6779 26.7752 56.1214 27.7079C56.423 28.3285 56.7299 28.942 57.065 29.5464L56.9293 29.6164C56.2765 28.3738 55.6726 27.0318 54.7434 25.9769C54.6562 25.9014 54.5119 25.7591 54.4635 25.924C54.3379 26.4185 54.5027 26.9551 54.6671 27.4352C54.9168 28.0979 55.23 28.7349 55.6022 29.3374L55.4737 29.4268C55.3387 29.2393 55.189 29.0629 55.0259 28.8992C54.169 28.049 54.4408 29.4606 54.5626 29.9268C54.8115 30.9572 55.2304 31.939 55.8021 32.8317C55.2771 32.3932 54.7345 31.9547 54.1884 31.5464C53.8203 31.2766 50.6966 28.8502 51.0669 30.4292C51.1579 30.6896 51.284 30.9363 51.4418 31.1625C51.7238 31.6736 52.1198 32.1127 52.5991 32.4458C51.7377 32.001 50.8367 31.6378 49.9077 31.3609C48.4172 30.9805 48.5534 31.7331 49.5054 32.5207C49.2063 32.2469 48.7938 31.949 48.7624 31.5158C48.9256 30.8283 50.6875 31.5659 51.1344 31.7202C51.5318 31.873 51.9239 32.0401 52.3109 32.2213L52.2707 32.2871C51.839 32.0372 50.1569 29.8377 51.3508 29.8027C51.9243 29.8446 52.4064 30.2127 52.886 30.4995C53.3657 30.7862 53.8122 31.1263 54.2586 31.4592C54.705 31.7922 55.1479 32.1358 55.5786 32.4883L55.4854 32.5721C55.0109 31.7586 54.6539 30.882 54.4249 29.9685C54.3251 29.624 54.2767 29.2666 54.2812 28.908C54.3457 28.2725 54.8088 28.4638 55.1331 28.7958C55.3035 28.9632 55.4598 29.1444 55.6005 29.3374L55.4702 29.425C55.0875 28.8116 54.7659 28.162 54.51 27.4858C54.3294 26.9705 54.1486 26.4127 54.2985 25.8562C54.6887 24.9954 55.8728 27.324 56.0802 27.6374C56.4297 28.2648 56.7579 28.9011 57.0721 29.5464L56.9381 29.6163C56.2749 28.3968 55.6911 27.1484 55.1425 25.8714C55.0664 25.6119 54.1169 23.6886 54.9209 24.0632C55.525 24.4251 55.9888 24.9667 56.4647 25.4676L56.3856 25.5424C55.9369 25.0665 55.534 24.5493 55.1823 23.9977C54.1901 22.5381 52.2979 18.6453 55.5906 21.695L55.5677 21.7146C55.4131 21.5134 55.3411 21.2608 55.3664 21.0084C55.4682 20.6538 56.2531 21.3134 56.4166 21.4255L56.4167 21.4344Z" fill="black"/>
<path d="M53.7615 20.7533C53.4064 20.5789 52.6196 20.1334 52.266 20.4207C52.1866 20.5756 52.1593 20.752 52.1882 20.9237C52.2919 21.7247 52.4753 22.5134 52.7356 23.278C52.313 22.8087 51.2746 21.82 51.6064 23.2064C51.7899 23.8611 52.0313 24.4982 52.3275 25.1102L52.1776 25.1785C51.9553 24.7537 51.7532 24.2049 51.3989 23.8872C51.3989 23.8872 51.3989 23.8872 51.4148 23.8871C51.3822 23.9951 51.3652 24.1072 51.3641 24.2201C51.42 25.359 51.9723 26.4183 52.4307 27.4447L52.2933 27.5164C52.0033 27.0443 51.7288 26.5067 51.3087 26.1399C51.288 26.1261 51.2652 26.1155 51.2413 26.1086C51.2289 26.1087 51.2307 26.1086 51.2167 26.1282C51.1944 26.1847 51.1822 26.2447 51.1808 26.3054C51.1918 26.7317 51.2737 27.1532 51.4231 27.5526C51.8048 28.6434 52.3322 29.6775 52.9911 30.6269C52.2882 29.7043 51.7243 28.6837 51.3173 27.5976C51.1547 27.1867 51.0626 26.7514 51.0446 26.3099C51.1007 25.4868 51.785 26.4462 51.9567 26.7085C52.1284 26.9709 52.2733 27.1946 52.4201 27.4465L52.2827 27.52C51.9431 26.7865 50.7622 24.4101 51.3271 23.7391C51.6639 23.5864 52.1771 24.86 52.3188 25.1209L52.1689 25.1891C51.8395 24.3954 51.4288 23.6022 51.3942 22.7179C51.5104 21.8909 52.3778 22.7109 52.6453 23.0204L52.5431 23.0777C52.4439 22.7246 52.3547 22.3714 52.2756 22.0182C51.9097 20.3224 52.0457 19.7942 53.7615 20.7604L53.7615 20.7533Z" fill="black"/>
<path d="M42.1719 4.3457C42.8148 4.95657 43.4241 5.60188 43.9971 6.27879C45.738 8.28855 47.4015 10.3643 49.0544 12.4472C51.2238 15.2518 53.4318 18.0296 55.3794 20.9985C54.8753 20.2679 54.3396 19.5623 53.8056 18.8567C51.12 15.3375 48.3886 11.8499 45.6114 8.39383C44.4854 7.02898 43.4121 5.61068 42.1719 4.34924L42.1719 4.3457Z" fill="black"/>
<path d="M53.9401 20.593C52.9983 19.9791 52.126 19.2645 51.3386 18.462C50.1625 17.0108 49.194 15.4095 48.0636 13.9138C46.7681 12.0884 45.4585 10.272 44.0855 8.50376C43.6232 7.91792 43.159 7.33209 42.6475 6.78906C44.7413 8.92547 46.443 11.4061 48.208 13.812C49.0693 15.0318 49.9271 16.2553 50.7603 17.4948C50.9567 17.8098 51.1777 18.1088 51.4212 18.3889C52.1906 19.2002 53.0339 19.9381 53.9401 20.593Z" fill="black"/>
<path d="M52.3551 22.1382C49.3341 19.816 46.7982 16.9237 44.8911 13.625C45.1663 14.0123 45.4098 14.4192 45.6955 14.7975C47.6259 17.4922 49.8605 19.9553 52.3551 22.1382Z" fill="black"/>
<path d="M43.6553 10.1951C45.027 12.0324 46.2984 13.9534 47.4905 15.9069C48.6386 17.5488 49.9692 19.0551 51.4567 20.3972C51.6674 20.5908 51.9002 20.759 52.1502 20.8982C51.89 20.7751 51.6468 20.6186 51.4269 20.4327C49.8724 19.1475 48.4986 17.6582 47.3426 16.0053C46.3167 14.2841 44.7642 11.8927 43.6553 10.1934L43.6553 10.1951Z" fill="black"/>
<path d="M45.6353 16.3828C46.4692 17.7373 47.5198 18.9417 48.5386 20.1588C49.5573 21.3758 50.6344 22.58 51.6882 23.7454C50.527 22.653 49.4307 21.4935 48.4049 20.2729C47.3984 19.0417 46.3495 17.8107 45.6353 16.3828Z" fill="black"/>
<path d="M51.6182 26.3655C50.1531 24.5696 46.455 19.7272 46.2822 17.5684C46.4156 18.4219 46.8933 19.1721 47.3073 19.9175C47.7212 20.6629 48.2022 21.3884 48.6832 22.1033C49.5023 23.3606 50.7496 25.1156 51.6182 26.3655Z" fill="black"/>
<path d="M48.1273 23.2631C48.4419 24.2215 49.118 25.0128 49.7005 25.8207C50.3147 26.6213 50.9659 27.3933 51.5977 28.1832C51.4196 28.0075 51.2414 27.8319 51.0633 27.6562C50.1661 26.7526 49.3738 25.7505 48.7016 24.669C48.4579 24.2267 48.1893 23.7704 48.1255 23.2578L48.1273 23.2631Z" fill="black"/>
<path d="M48.2119 27.0215C48.9662 28.3642 50.0785 29.5399 51.1091 30.6772C49.8974 29.7021 48.7655 28.4965 48.2119 27.0215Z" fill="black"/>
</g>
<path opacity="0.3" d="M43.6378 32.6978C44.0616 31.5891 46.2141 32.768 47.0007 32.9234C47.0201 32.9233 47.0767 32.9229 47.052 32.9337C47.0609 32.9336 47.0237 32.9339 47.0133 32.9605C47.0032 32.9734 46.9978 32.9893 46.9979 33.0057C46.998 33.0221 47.0037 33.0379 47.0139 33.0507C46.8557 32.9368 45.8035 32.5002 46.2103 32.2355C46.2729 32.2176 46.3383 32.2117 46.403 32.2182C46.8272 32.2726 47.2469 32.3571 47.6591 32.4712C48.3591 32.6431 49.1002 32.8732 49.7951 33.0717L49.8323 33.0803L49.85 33.0802C49.8402 33.0823 49.8315 33.0881 49.8257 33.0963C49.8199 33.1045 49.8173 33.1146 49.8185 33.1246C49.5858 32.7406 49.1051 32.3159 49.2272 31.8197C49.1565 32.3261 49.6403 32.6889 49.8977 33.0692C49.9025 33.0777 49.9067 33.0865 49.9103 33.0956C49.9131 33.1033 49.9143 33.1114 49.9139 33.1195C49.9135 33.1277 49.9114 33.1356 49.9078 33.1429C49.9042 33.1502 49.8992 33.1567 49.893 33.162C49.8869 33.1673 49.8797 33.1713 49.8719 33.1738C49.8378 33.1749 49.8037 33.1703 49.771 33.1603C48.6582 32.9099 47.5215 32.527 46.3936 32.3881C46.3531 32.3825 46.312 32.3828 46.2715 32.389C46.2715 32.389 46.2715 32.389 46.2908 32.3659C46.3101 32.3427 46.2908 32.357 46.2908 32.357C46.3285 32.4434 46.4351 32.5064 46.5258 32.5712C46.7125 32.7008 46.936 32.7894 47.1281 32.9331C47.1425 32.9484 47.1506 32.9686 47.1508 32.9896C47.1509 33.0106 47.1431 33.0309 47.1289 33.0463C47.1167 33.0616 47.1001 33.0728 47.0814 33.0785C46.8791 33.057 46.6812 33.0047 46.4947 32.9235C45.805 32.7054 44.0451 31.7555 43.6235 32.6873L43.6378 32.6978Z" fill="white"/>
<path opacity="0.3" d="M54.8066 26.623C55.1425 27.5795 55.6057 28.5386 55.9151 29.5059C55.6338 29.0697 55.3975 28.6061 55.21 28.1222C55.0297 27.6387 54.8245 27.1466 54.8066 26.623Z" fill="white"/>
<path opacity="0.3" d="M54.6857 28.855C54.6719 29.1452 54.7959 29.4257 54.8687 29.7047C55.1234 30.5442 55.4246 31.3689 55.7707 32.175C55.2616 31.4423 54.9088 30.6125 54.7344 29.7375C54.6882 29.4512 54.5993 29.1369 54.6857 28.8532L54.6857 28.855Z" fill="white"/>
<path opacity="0.3" d="M51.882 22.869C52.0352 23.5242 52.4221 24.1991 52.5791 24.8826C52.3678 24.5898 52.196 24.2704 52.0682 23.9327C51.9508 23.5974 51.8049 23.2269 51.8838 22.8725L51.882 22.869Z" fill="white"/>
<path d="M62.3027 41.9784C64.0075 41.8024 65.7304 41.9639 67.3728 42.4538C70.8463 43.5649 70.5619 46.624 71.9695 47.7816L71.4095 49.8943C71.4095 49.8943 70.9325 49.9897 69.9807 50.9836C69.0289 51.9775 67.7655 53.2001 66.8548 53.5019C65.9441 53.8038 62.5523 54.493 61.7088 54.7909C60.8653 55.0888 58.4372 56.4647 55.0759 55.9666C51.7146 55.4685 43.5514 50.6506 40.4967 47.9691C37.4419 45.2875 31.1852 37.3832 30.4117 36.3237C29.6382 35.2642 27.7312 29.5422 28.6335 29.0494C29.5358 28.5565 34.2788 29.8108 35.7545 30.3434C37.2302 30.8761 41.6084 32.5841 42.6255 33.0564C43.6425 33.5286 52.0089 37.5648 54.6971 38.954C57.3854 40.3432 61.595 41.9728 62.3027 41.9784Z" fill="#FFBF3F"/>
<g opacity="0.3">
<path d="M69.545 51.4312C68.6667 52.322 67.6348 53.2439 66.8565 53.5024C65.9458 53.8061 62.5557 54.4935 61.7104 54.7914C60.8651 55.0893 58.4388 56.4651 55.0775 55.967C52.5397 55.5923 47.2707 52.7495 43.52 50.2285C44.5616 50.6652 47.8934 52.002 49.8818 52.4833C51.8701 52.9646 55.0115 52.3851 54.8941 52.2939C54.7767 52.2027 53.3874 51.1281 54.1892 51.4303C55.237 51.8117 56.306 52.132 57.3909 52.3894C57.0133 52.0259 55.9947 51.0831 56.8132 51.4966C57.4564 51.7997 58.1183 52.0615 58.7948 52.2804C58.5013 52.0419 58.028 51.419 58.0504 51.3304C58.0728 51.2418 58.9525 51.554 58.9525 51.554C58.9525 51.554 58.3561 51.0275 58.7734 51.2474C59.1907 51.4674 60.3173 51.93 60.1769 51.8372C60.0365 51.7444 59.2539 51.1573 60.017 51.4845C60.78 51.8117 62.4602 51.998 62.3343 51.9511C62.2083 51.9042 61.7252 51.3857 62.1708 51.5984C62.6163 51.8111 63.9142 51.97 65.2044 52.2952C67.2283 52.8045 68.4146 52.184 69.545 51.4312Z" fill="white"/>
<path d="M57.3892 50.9375C57.6958 51.2715 57.9458 51.5917 58.2365 51.931C58.0188 51.8573 57.825 51.726 57.6758 51.5511C57.5267 51.3762 57.4276 51.1642 57.3892 50.9375Z" fill="white"/>
<path d="M61.1418 51.6233C60.324 51.5671 59.4855 51.3272 58.8677 50.7637C59.6061 51.1123 60.3825 51.3261 61.1418 51.6233Z" fill="white"/>
<path d="M54.3159 52.1663C54.1191 52.1215 53.9364 52.0289 53.784 51.8966C53.6316 51.7644 53.5141 51.5967 53.4419 51.4082C53.7678 51.618 54.0622 51.8732 54.3159 52.1663Z" fill="white"/>
</g>
<path d="M69.8779 50.1876C70.3528 50.3081 70.6411 50.0372 71.5209 49.8735C71.9817 49.7605 72.449 49.6762 72.9203 49.6212C72.9203 49.6212 71.915 48.8198 71.4048 48.9597C70.8945 49.0995 69.8779 50.1876 69.8779 50.1876Z" fill="#A6A6A6"/>
<path d="M71.9692 47.783C71.5346 47.8757 71.1317 48.0804 70.8005 48.3768C70.4613 48.6924 70.3638 49.153 70.1225 49.8146C70.0462 49.9732 69.9123 50.0969 69.7482 50.1605C70.3847 50.3559 70.8061 49.6594 71.7111 49.5521C72.6161 49.4449 73.2358 49.7678 73.3358 49.6468C73.4358 49.5258 72.958 48.5137 71.9692 47.783Z" fill="#C7C7C7"/>
<path d="M70.9516 48.7665C70.8953 48.8094 70.7982 49.0896 70.9405 48.9435C70.9657 48.9096 70.9884 48.874 71.0087 48.8369C71.0067 48.8711 70.9976 48.9046 70.982 48.9352C70.9664 48.9658 70.9446 48.9927 70.918 49.0144C70.9114 49.0191 70.904 49.0225 70.8961 49.0242C70.8883 49.026 70.8801 49.0262 70.8722 49.0248C70.8643 49.0233 70.8567 49.0203 70.85 49.0159C70.8432 49.0115 70.8374 49.0058 70.8329 48.9991C70.8239 48.9524 70.8306 48.904 70.8521 48.8616C70.8736 48.8192 70.9086 48.7851 70.9516 48.7647L70.9516 48.7665Z" fill="#263238"/>
<path d="M36.5089 30.6238C34.6384 29.7879 32.5805 27.2249 31.6983 25.8087C30.8161 24.3926 25.3304 14.6908 24.7862 13.5447C24.2421 12.3987 22.1076 8.52175 21.583 8.88813C21.0584 9.25451 23.078 13.1535 23.078 13.1535C23.078 13.1535 22.255 13.3521 24.0242 16.8619C24.0242 16.8619 23.1316 17.222 24.9537 20.7137C24.9537 20.7137 23.4572 19.976 25.6311 24.4382C25.6311 24.4382 24.6834 24.2574 24.4665 24.3615C24.2497 24.4657 24.3953 24.7902 24.3953 24.7902C24.3953 24.7902 23.9625 24.6287 23.8069 25.1481C23.7151 25.4653 23.7096 25.8012 23.7908 26.1213C23.7908 26.1213 21.5683 25.2967 21.7993 26.1991C21.7993 26.1991 18.8006 24.9395 17.6899 24.7333C16.5793 24.5271 16.1804 24.9049 16.1804 24.9049C15.7104 24.7397 15.207 24.6929 14.7146 24.7685C13.8592 24.8878 11.3708 23.9943 11.412 24.8166C11.412 24.8166 7.65516 23.1732 6.61028 23.0178C5.56541 22.8625 5.41644 23.0599 4.74133 22.9072C4.06622 22.7546 1.79954 21.6915 1.47119 22.29C1.14284 22.8885 2.274 23.4873 9.43225 27.0491C16.5905 30.6109 27.469 34.1499 28.7605 34.9104C30.0521 35.6708 31.2229 37.3697 31.2229 37.3697L36.5089 30.6238Z" fill="#FFBF3F"/>
<g opacity="0.2">
<path d="M4.74023 22.9082C12.0899 26.0158 19.8449 29.4124 27.0884 32.7772C19.8645 29.6847 11.8805 26.1765 4.74023 22.9082Z" fill="black"/>
<path d="M10.9893 26.2754C13.3803 27.4084 16.6425 29.1615 19.0798 30.0854C21.851 31.1874 24.6691 32.1811 27.4177 33.3505C26.7223 33.083 26.0182 32.8297 25.3159 32.5834C23.2691 31.846 21.0325 31.0322 19.0173 30.2503C16.2373 29.1484 13.6263 27.6773 10.9928 26.2754L10.9893 26.2754Z" fill="black"/>
<path d="M11.4112 24.8178C14.0973 25.9045 16.9302 26.9848 19.5867 28.1407C22.2492 29.3867 24.8229 30.828 27.3999 32.2534L25.4309 31.2589C23.597 30.3413 21.3771 29.1382 19.5188 28.2933C16.8302 27.104 14.084 26.0319 11.4147 24.8125L11.4112 24.8178Z" fill="black"/>
<path d="M16.1797 24.9062C18.3589 25.6162 20.3889 26.7269 22.4167 27.7846C24.3532 28.9403 26.3139 30.2639 28.1769 31.5368L26.7111 30.6414C25.2896 29.7669 23.7558 28.7676 22.3293 27.9392C21.3329 27.3819 20.312 26.8637 19.2929 26.3455C18.2738 25.8273 17.2563 25.2984 16.1797 24.9062Z" fill="black"/>
<path d="M21.7979 26.1992C24.5401 27.4624 27.0714 29.1782 29.4148 31.0758C26.9259 29.3703 24.4372 27.6719 21.7979 26.1992Z" fill="black"/>
<path d="M23.7896 26.123C26.082 27.0763 28.0885 28.6242 29.8855 30.3169L29.1474 29.756C27.4502 28.427 25.6862 27.1481 23.7896 26.123Z" fill="black"/>
<path d="M23.0762 13.1523C24.688 15.922 26.56 18.7074 28.1858 21.4663C29.4179 23.5664 31.0126 25.4321 32.507 27.3499L34.0348 29.2514C32.4296 27.4176 30.8525 25.5465 29.395 23.5895C28.9011 22.9399 28.4472 22.2608 28.0361 21.5559C26.3993 18.7475 24.5897 16.0323 23.0779 13.1523L23.0762 13.1523Z" fill="black"/>
<path d="M24.0225 16.8588C25.2591 19.1004 26.737 21.2111 28.2589 23.2648C29.4196 24.7904 30.7229 26.2124 32.005 27.6504L33.2854 29.085C31.4839 27.2596 29.7052 25.3952 28.1269 23.3701C26.6138 21.3004 25.1463 19.1719 24.0313 16.8535L24.0225 16.8588Z" fill="black"/>
<path d="M24.9532 20.707C26.0148 22.2121 27.0746 23.7348 28.2962 25.1061C29.1877 26.0887 30.3408 27.0376 31.2939 27.9756C31.6252 28.2988 31.9601 28.6166 32.2879 28.9416C31.932 28.6451 31.5866 28.3397 31.2342 28.0397C30.2336 27.1375 29.0806 26.2098 28.1661 25.2309C26.9614 23.8217 25.885 22.3077 24.9497 20.707L24.9532 20.707Z" fill="black"/>
<path d="M25.6294 24.4355C27.1182 26.0773 29.7006 28.0015 31.3952 29.4703C30.3351 28.7519 29.3133 27.9785 28.3341 27.1532C27.3711 26.3179 26.3675 25.4865 25.6294 24.4355Z" fill="black"/>
<path d="M24.394 24.7812C26.5908 26.289 28.667 27.9654 30.6037 29.7951C29.5544 29.01 28.5061 28.1205 27.4884 27.3015C26.4706 26.4826 25.3854 25.6181 24.394 24.7812Z" fill="black"/>
</g>
<g opacity="0.3">
<path d="M2.01944 22.447C1.76148 22.7425 3.47967 23.5477 3.72675 23.714C5.24162 24.5365 7.14151 25.5173 8.66172 26.3451C8.98671 26.5197 9.31523 26.6943 9.64035 26.8884C9.29785 26.7387 8.96058 26.5783 8.62158 26.4215C7.95231 26.0954 1.49622 23.008 2.01944 22.447Z" fill="white"/>
<path d="M12.3854 24.7222C12.4468 24.6989 12.513 24.6912 12.5781 24.6996C13.217 24.734 13.8323 24.9419 14.4575 25.0401C14.7705 24.9926 15.0871 24.9731 15.4036 24.9821C15.2888 25.0076 14.607 25.1646 14.5082 25.1936C14.034 25.1846 13.5782 25.0233 13.1245 24.9098C12.9136 24.8617 12.5924 24.7242 12.3855 24.7257L12.3854 24.7222Z" fill="white"/>
<path d="M21.8125 9.58557C22.0743 10.3303 22.6387 11.3347 22.9799 12.054L24.2003 14.5045C23.682 13.7496 23.221 12.9569 22.8213 12.133C22.4351 11.3078 21.9993 10.4812 21.8125 9.58203L21.8125 9.58557Z" fill="white"/>
<path d="M23.2607 14.1914C23.858 15.8395 24.6845 17.3852 25.5304 18.9183C24.4784 17.5105 23.6268 15.9243 23.2607 14.1914Z" fill="white"/>
</g>
<path opacity="0.2" d="M45.1631 34.2727C47.3437 35.1613 49.4563 36.2025 51.5688 37.2348C52.9749 37.9325 54.3162 38.7297 55.766 39.351C57.8545 40.242 60.0955 41.4327 62.3019 41.9726C61.9175 41.8992 61.5364 41.8011 61.1589 41.6941C60.0244 41.3748 58.9488 40.8764 57.8576 40.4366C56.4097 39.817 54.9706 39.2098 53.5661 38.4856C52.3936 37.7862 50.6239 36.9514 49.3934 36.3214C48.1614 35.7181 46.4036 34.8176 45.1631 34.2656L45.1631 34.2727Z" fill="black"/>
<path d="M65.7788 48.9023C65.7778 48.7554 66.281 48.1168 66.9097 48.2114C67.4251 48.2891 67.9009 48.7829 68.0162 48.8263C68.1315 48.8697 68.2626 48.9006 68.2506 48.9414C68.2385 48.9821 68.0742 49.0222 68.0461 49.0525C67.8459 49.2521 67.4601 49.7431 66.704 49.6476C66.4931 49.6298 66.2923 49.5493 66.1274 49.4165C65.9625 49.2837 65.8411 49.1046 65.7788 48.9023Z" fill="#263238"/>
<g opacity="0.2">
<path d="M65.4451 48.6352C66.2071 47.8161 67.0485 47.4669 67.9375 48.3452C68.0302 48.4431 68.1328 48.5313 68.2436 48.6084C68.1233 48.5457 68.0111 48.4687 67.9094 48.379C66.9802 47.5735 66.2822 47.9305 65.4451 48.6352Z" fill="black"/>
<path d="M65.6621 49.3457C66.1272 49.8201 66.8243 50.077 67.4483 49.7541C67.6525 49.6666 67.8493 49.5628 68.0369 49.4439C67.8665 49.5912 67.6785 49.7168 67.477 49.8176C66.8568 50.1758 66.0624 49.9108 65.6621 49.3457Z" fill="black"/>
</g>
<path d="M67.1963 48.5692C67.2782 48.5516 67.3637 48.5666 67.4347 48.611C67.5057 48.6555 67.5566 48.7258 67.5766 48.8071C67.5006 48.7947 67.4278 48.7672 67.3626 48.7264C67.2973 48.6856 67.2408 48.6321 67.1963 48.5692Z" fill="white"/>
<path d="M66.0989 48.7531C66.1942 48.6056 66.341 48.4987 66.5107 48.4534C66.6804 48.408 66.8609 48.4274 67.0171 48.5078C66.6973 48.5244 66.3845 48.608 66.0989 48.7531Z" fill="white"/>
<g opacity="0.2">
<path d="M62.0351 42.196C61.6556 42.3154 61.2797 42.4437 60.9056 42.5702C60.6314 42.6488 60.3683 42.7618 60.1225 42.9065C60.0258 42.9957 60.1625 43.0655 60.2213 43.1181C59.9272 43.3201 59.5307 43.5387 59.4165 43.8898C59.3022 44.2409 59.2551 44.588 59.1798 44.9406C59.0552 45.5854 58.8018 46.2736 58.9657 46.9306C58.9766 46.973 59.0001 47.0436 59.037 47.0168C59.0195 47.0417 58.9928 47.0171 58.982 46.9959C58.8581 46.6748 58.8167 46.3278 58.8617 45.9866C58.9686 45.3454 59.0844 44.4636 59.2498 43.8415C59.3586 43.4657 59.7303 43.2437 60.0367 43.0398L60.0288 43.1761C59.7635 42.9268 60.068 42.707 60.2975 42.6435C60.8649 42.4521 61.4457 42.3031 62.0351 42.1977L62.0351 42.196Z" fill="black"/>
<path d="M59.6492 42.8971C59.4028 43.0758 59.0465 43.2145 58.9068 43.4808C58.8344 43.7993 58.7958 44.1246 58.7916 44.4511C58.78 44.6745 58.7815 44.8984 58.7964 45.1216C58.7161 44.9074 58.6685 44.6823 58.6554 44.4539C58.6201 44.107 58.6518 43.7566 58.749 43.4218C58.9147 43.0951 59.3297 42.9949 59.6492 42.8971Z" fill="black"/>
<path d="M58.5953 46.1789C58.5498 46.7379 58.6475 47.2992 58.8793 47.8098L59.1183 48.3265C58.61 47.7586 58.3281 46.9168 58.5953 46.1789Z" fill="black"/>
<path d="M59.1272 47.7852C59.237 48.1846 59.437 48.5536 59.7116 48.8637C59.53 48.749 59.3809 48.5896 59.2786 48.4007C59.1763 48.2119 59.1241 47.9999 59.1272 47.7852Z" fill="black"/>
</g>
<g opacity="0.2">
<path d="M41.9937 36.6632C41.9781 36.6987 41.9616 36.8757 41.8913 36.9364C41.7535 36.9995 41.6082 37.0445 41.4588 37.0703C41.4767 37.1601 41.4731 37.2529 41.4483 37.3411C41.291 37.4732 41.1123 37.5774 40.9198 37.6491C40.7066 37.6785 40.4912 37.6901 40.2761 37.6837C40.2761 37.6837 40.4334 37.9073 40.3791 37.9908C40.3248 38.0744 39.7875 37.8836 39.4935 37.8467C39.1996 37.8099 38.3658 37.7362 38.3658 37.7362C38.3658 37.7362 38.8012 38.0056 38.7395 38.0378C38.6778 38.0701 37.9666 38.0751 37.6771 37.9074C37.3875 37.7396 36.7629 37.4698 36.7629 37.4698C36.7629 37.4698 37.25 37.7989 37.1189 37.7804C36.9879 37.7619 35.1821 37.3235 34.3588 36.7385C33.8101 36.315 33.3022 35.8412 32.8415 35.3233C32.6187 35.0843 32.4386 34.891 32.3301 34.7962C32.0132 34.5189 31.4603 33.8913 31.4239 33.7412C31.3912 33.6176 31.612 33.8265 31.6904 33.9038C31.3998 33.5927 30.7695 32.7763 30.735 32.6492C30.7005 32.5221 30.9784 32.7837 31.0478 32.8469C30.8477 32.6507 30.6683 32.4344 30.5125 32.2014C30.3067 31.8703 30.6488 31.9687 30.5393 31.7413C30.4298 31.5138 30.3891 31.5124 30.4344 31.4183C30.4797 31.3242 30.6945 31.4164 30.6945 31.4164C30.6945 31.4164 30.4287 30.8664 30.4564 30.7759C30.4841 30.6855 30.9976 30.4997 30.9976 30.4997L31.0517 30.3949C31.1127 30.2742 31.5903 30.2602 31.631 30.2687C31.6718 30.2773 31.4303 29.9057 31.47 29.7551C31.5096 29.6044 32.8698 29.8177 32.8698 29.8177C32.8698 29.8177 32.2283 29.4189 32.6643 29.5325L34.3428 29.9735C34.3428 29.9735 34.238 29.9177 34.1154 29.846C33.9129 29.7325 33.666 29.5838 33.7954 29.6183C34.3214 29.6603 34.8408 29.7623 35.3437 29.9222C35.7041 30.1999 36.0938 30.4374 36.5057 30.6305C37.2543 30.9135 38.2565 31.2957 39.2376 31.6832C39.3638 31.7725 39.4617 31.8585 39.453 31.8728C39.4286 31.9278 39.0432 31.7147 39.0432 31.7147L39.4467 31.9772C39.7253 32.1929 39.9845 32.4325 40.2213 32.6935C40.2056 32.7201 39.7968 32.4541 39.9106 32.5382C40.0244 32.6223 40.5347 33.2308 40.6823 33.3466C40.83 33.4623 41.4493 33.9762 41.4248 34.0136C41.4003 34.0509 41.0591 33.8392 41.0591 33.8392C41.2539 33.9663 41.4378 34.1093 41.6088 34.267C41.7159 34.4007 42.0118 34.7188 41.9661 34.7563C41.9203 34.7938 41.7778 34.6444 41.7528 34.6198C41.7957 34.6779 42.2547 35.2921 42.2718 35.4653C42.289 35.6386 42.0966 35.6983 42.0691 35.8099C42.0416 35.9216 42.3314 36.3866 42.6662 36.6903C42.7731 36.7939 42.0094 36.6277 41.9937 36.6632Z" fill="white"/>
<path d="M30.1452 31.6406C30.2746 31.9856 30.4559 32.3088 30.6827 32.5992C30.5048 32.5148 30.3576 32.3772 30.2613 32.2055C30.165 32.0338 30.1244 31.8364 30.1452 31.6406Z" fill="white"/>
<path d="M33.3184 35.8379C33.7456 36.4544 34.3308 36.9446 35.0126 37.2571C35.4924 37.5478 36.0126 37.7659 36.5563 37.9043C36.7337 37.9667 36.911 38.0256 37.0884 38.0951C36.718 38.011 36.3618 37.9233 35.9845 37.8499C35.6287 37.7163 35.2829 37.5574 34.9497 37.3743C34.2514 37.0561 33.6779 36.5159 33.3184 35.8379Z" fill="white"/>
<path d="M40.2305 32.8611C40.3942 33.0033 40.6678 33.1623 40.8456 33.292C41.059 33.4347 41.2464 33.6128 41.3996 33.8188C41.2894 33.7556 41.1826 33.6866 41.0797 33.6123C40.7773 33.3862 40.4116 33.2048 40.2305 32.8594L40.2305 32.8611Z" fill="white"/>
<path d="M41.6895 35.291C41.8198 35.467 42.0566 35.6741 42.2063 35.8358C42.3867 36.0191 42.5348 36.2316 42.6442 36.4642C42.5482 36.3807 42.4572 36.2915 42.3717 36.1973C42.1202 35.916 41.7965 35.6706 41.6895 35.291Z" fill="white"/>
<path d="M32.397 29.3242C33.0937 29.3482 33.7696 29.5678 34.3475 29.9579C33.6966 29.729 33.0601 29.5354 32.397 29.3242Z" fill="white"/>
<path d="M31.2856 33.8652C31.6478 34.3424 32.0667 34.7737 32.5331 35.1496L33.2446 35.6965C33.483 35.8806 33.7231 36.0647 33.9563 36.2629C32.9364 35.6439 31.8348 34.9617 31.2856 33.8652Z" fill="white"/>
<path d="M41.2637 33.9746C41.4681 34.0916 41.659 34.2308 41.8327 34.3899C41.9191 34.4958 42.0165 34.5924 42.1231 34.6779C42.4057 34.9145 42.7027 35.1334 43.0123 35.3333C42.5617 35.1843 42.1555 34.9251 41.8305 34.5792C41.6537 34.3666 41.4644 34.1648 41.2637 33.9746Z" fill="white"/>
<path d="M29.9516 30.0857C30.2009 30.4203 30.424 30.7736 30.619 31.1425C30.702 31.3807 30.8203 31.5868 30.9192 31.8197C30.7027 31.5662 30.5221 31.2841 30.3825 30.9814C30.2031 30.7 30.0567 30.3989 29.9463 30.084L29.9516 30.0857Z" fill="white"/>
<path d="M41.9014 34.9508C42.1952 35.2162 42.4698 35.5021 42.723 35.8065C42.9024 36.1591 43.2453 36.3619 43.567 36.579C43.2033 36.4329 42.8145 36.2393 42.6191 35.878C42.3515 35.5916 42.1123 35.2799 41.9049 34.9472L41.9014 34.9508Z" fill="white"/>
<path d="M31.0811 29.3652C31.4952 29.4187 31.9046 29.5046 32.3053 29.6219C32.5325 29.7282 32.7647 29.7867 33.0006 29.8771C32.6688 29.8548 32.3416 29.7875 32.028 29.677C31.7017 29.6087 31.3841 29.5042 31.0811 29.3652Z" fill="white"/>
<path d="M40.2777 37.6839C41.0095 37.5683 41.7578 37.6193 42.4672 37.8329C41.7451 37.7956 40.9983 37.7549 40.2777 37.6839Z" fill="white"/>
<path d="M41.4598 37.0708C41.669 36.9641 41.9062 36.9253 42.1384 36.9598C42.4855 37.093 42.8235 37.249 43.1501 37.4268C42.7956 37.3284 42.4408 37.2 42.1021 37.0804C41.8984 37.0535 41.6759 37.1028 41.4598 37.069L41.4598 37.0708Z" fill="white"/>
<path d="M42.9668 36.8789C43.4877 36.9867 43.9358 37.309 44.3608 37.6174C43.8449 37.4671 43.4163 37.1552 42.9668 36.8789Z" fill="white"/>
<path d="M39.0786 37.8027C39.4659 37.8431 39.8508 37.9042 40.2316 37.9856C40.6087 38.0219 41.0185 37.9341 41.3976 38.0039C41.7766 38.0738 42.1732 38.1116 42.556 38.2009C42.9387 38.2902 43.2902 38.4646 43.6747 38.5468C43.3828 38.5187 43.0951 38.4572 42.8172 38.3636C42.3438 38.2603 41.8648 38.1851 41.3826 38.1385C40.9875 38.0546 40.6131 38.1439 40.2164 38.0883C39.8197 38.0328 39.4648 37.8708 39.0786 37.8045L39.0786 37.8027Z" fill="white"/>
<path d="M38.3585 37.7363C38.7921 37.8052 39.2207 37.9026 39.6414 38.028C39.7686 38.0875 39.9034 38.1288 40.0421 38.1507C40.6174 38.198 41.1914 38.0577 41.7728 38.2305C41.4847 38.2139 41.1957 38.216 40.9078 38.2366C40.617 38.2955 40.3191 38.3119 40.0236 38.2853C39.8751 38.2616 39.731 38.2155 39.5963 38.1486C39.1936 37.9887 38.7613 37.9051 38.355 37.7399L38.3585 37.7363Z" fill="white"/>
<path d="M40.0142 37.5859C40.3576 37.6207 40.7017 37.7403 41.0327 37.7733C41.3268 37.7878 41.6184 37.8343 41.9023 37.9122C41.6135 37.9261 41.3241 37.924 41.0354 37.906C40.6805 37.8528 40.336 37.7448 40.0142 37.5859Z" fill="white"/>
<path d="M41.1173 37.4476C41.3823 37.3412 41.6657 37.2881 41.9512 37.2913C42.4073 37.3884 42.8519 37.5335 43.2775 37.7242C42.9117 37.6646 42.5496 37.5839 42.1931 37.4824C42.0261 37.4217 41.8481 37.3964 41.6707 37.4083L41.1173 37.4476Z" fill="white"/>
<path d="M41.6787 34.5527C41.9631 34.8149 42.2716 35.0496 42.6001 35.2539C42.8582 35.5415 43.1582 35.7886 43.4898 35.987C43.1131 35.8724 42.7762 35.6541 42.5177 35.357C42.1828 35.1545 41.897 34.8805 41.6805 34.5545L41.6787 34.5527Z" fill="white"/>
<path d="M39.9126 32.5332C40.37 32.9227 40.9516 33.1079 41.4423 33.4494C41.9135 33.8116 42.4088 34.1415 42.9247 34.4367C42.3653 34.226 41.8413 33.9315 41.3706 33.5631C40.8869 33.2216 40.2963 33.0011 39.9126 32.5367L39.9126 32.5332Z" fill="white"/>
<path d="M39.3428 31.9004C40.1392 32.199 40.7767 32.7854 41.4613 33.2741C40.677 32.9383 40.0537 32.3606 39.3428 31.9004Z" fill="white"/>
<path d="M36.0771 37.5039C36.6499 37.6856 37.2035 37.917 37.783 38.0686C38.5557 38.2595 39.3887 38.2252 40.1408 38.5083C40.3242 38.5866 40.5156 38.6446 40.7117 38.6812C40.3065 38.6681 39.9319 38.4779 39.5424 38.4435C39.153 38.4091 38.7457 38.3572 38.3473 38.3034C37.5451 38.2012 36.8031 37.8455 36.0771 37.5039Z" fill="white"/>
<path d="M39.4746 32.7812C39.9178 33.1638 40.4816 33.3367 40.9423 33.6873C41.4381 33.9854 41.9133 34.3165 42.3646 34.6785C41.7691 34.2758 41.1351 33.9283 40.5449 33.522C40.1788 33.2981 39.7724 33.1082 39.4782 32.783L39.4746 32.7812Z" fill="#FFBF3F"/>
<path d="M38.6504 35.6621C39.2956 36.0874 40.0863 36.073 40.8061 36.2908C41.5317 36.5082 42.2283 36.8128 42.8806 37.1978C42.2044 36.8675 41.5025 36.5927 40.7819 36.3759C40.0727 36.1545 39.2553 36.1461 38.6539 35.6621L38.6504 35.6621Z" fill="#FFBF3F"/>
<path d="M40.3906 35.0781C40.7596 35.2153 41.1508 35.2497 41.5111 35.424C41.8715 35.5984 42.118 35.9274 42.3818 36.2122C42.1647 36.0368 41.9298 35.8315 41.7091 35.6544C41.3319 35.3474 40.8029 35.3388 40.3907 35.087L40.3906 35.0781Z" fill="#FFBF3F"/>
<path d="M39.524 37.3293C39.7934 37.4017 40.084 37.4669 40.2783 37.6778C40.2091 37.6535 40.147 37.6239 40.0832 37.5996C39.8821 37.5401 39.6929 37.4463 39.5239 37.3223L39.524 37.3293Z" fill="#FFBF3F"/>
<path d="M31.6279 30.2598C32.0995 30.3926 32.5918 30.4723 32.9921 30.7808C32.7581 30.7153 32.5414 30.5947 32.3092 30.5292C32.0688 30.4774 31.8387 30.3864 31.6279 30.2598Z" fill="#FFBF3F"/>
<path d="M32.7437 29.7637C32.9086 29.8248 33.0698 29.8957 33.2264 29.9761C33.3981 30.0409 33.5442 30.1597 33.6427 30.3146C33.5663 30.2656 33.3885 30.1395 33.3104 30.1029C33.1026 30.0248 32.9106 29.9099 32.7437 29.7637Z" fill="#FFBF3F"/>
<path d="M41.875 34.7239C41.4978 34.4276 41.0913 34.2199 40.7036 33.9414C41.1596 34.0876 41.5654 34.3587 41.875 34.7239Z" fill="#FFBF3F"/>
<path d="M41.4588 37.0703C41.2082 36.9474 40.9661 36.8078 40.7341 36.6526C40.5771 36.5922 40.4236 36.523 40.2744 36.4453C40.4412 36.4786 40.6058 36.5223 40.7672 36.5763C41.0148 36.7155 41.2467 36.8811 41.4588 37.0703Z" fill="#FFBF3F"/>
</g>
<g opacity="0.2">
<path d="M40.0915 35.2433C40.0811 35.2682 40.0678 35.3992 40.0151 35.4438C39.914 35.4905 39.8072 35.5234 39.6973 35.5416C39.7103 35.6085 39.7077 35.6775 39.6899 35.7433C39.5732 35.8392 39.4417 35.9154 39.3005 35.969C39.1436 35.9909 38.985 35.9997 38.8266 35.9953C38.8266 35.9953 38.9428 36.159 38.9025 36.2212C38.8623 36.2834 38.4668 36.1429 38.2472 36.1144C38.0276 36.0859 37.4169 36.0336 37.4169 36.0336C37.4169 36.0336 37.7367 36.2313 37.6909 36.2563C37.4249 36.2886 37.155 36.2553 36.9048 36.1593C36.6881 36.037 36.2302 35.8368 36.2302 35.8368C36.2302 35.8368 36.5858 36.0802 36.4883 36.0649C36.3909 36.0497 35.0601 35.7301 34.4538 35.3009C34.0496 34.9885 33.6753 34.6394 33.3354 34.258C33.1714 34.0823 33.0377 33.9382 32.9576 33.868C32.7244 33.6644 32.3177 33.2002 32.2904 33.0907C32.2631 32.9812 32.4289 33.1534 32.4877 33.2114C32.2252 32.9247 31.9891 32.6149 31.7823 32.2859C31.7605 32.2011 31.9599 32.3854 32.0133 32.4311C31.8673 32.2864 31.7364 32.1273 31.6225 31.9562C31.4704 31.7113 31.7221 31.7785 31.6413 31.6164C31.5606 31.4542 31.5304 31.4402 31.5636 31.3781C31.5968 31.3159 31.7546 31.3767 31.7546 31.3767C31.6748 31.228 31.6142 31.0697 31.5744 30.9057C31.5934 30.8383 31.9728 30.7012 31.9728 30.7012L32.0181 30.6106C32.0617 30.5218 32.4137 30.5123 32.4438 30.5174C32.4739 30.5225 32.2951 30.2513 32.3244 30.1396C32.3537 30.028 33.3561 30.1854 33.3561 30.1854C33.3561 30.1854 32.8834 29.8915 33.2042 29.9742L34.4449 30.3015L34.2762 30.2072C34.127 30.1216 33.9457 30.0132 34.0396 30.0319C34.4279 30.0623 34.8113 30.1373 35.1823 30.2556C35.4481 30.4608 35.7352 30.6367 36.0387 30.7803C36.5904 30.9887 37.3283 31.2718 38.0522 31.5568C38.1464 31.6216 38.2193 31.6795 38.2124 31.6954C38.2054 31.7114 37.909 31.5791 37.909 31.5791L38.2058 31.7716C38.4114 31.9307 38.6032 32.1069 38.7792 32.2982C38.7652 32.3178 38.4648 32.1235 38.5484 32.1849C38.632 32.2462 39.0085 32.6946 39.1187 32.7806C39.3155 32.9274 39.4985 33.0919 39.6653 33.272C39.6461 33.3005 39.3955 33.1448 39.3955 33.1448C39.5392 33.2387 39.6748 33.3442 39.8011 33.4604C39.8797 33.5589 40.0989 33.7926 40.0584 33.8124C40.0178 33.8321 39.9198 33.7302 39.902 33.7126C39.9341 33.7549 40.2717 34.2089 40.2832 34.3362C40.2947 34.4635 40.15 34.5141 40.1346 34.5902C40.1193 34.6664 40.3287 35.0152 40.5745 35.2417C40.6689 35.3383 40.1072 35.2167 40.0915 35.2433Z" fill="white"/>
<path d="M31.3573 31.5429C31.4754 31.7861 31.6088 32.0215 31.7568 32.2477C31.6181 32.1957 31.5022 32.0966 31.4291 31.9678C31.3561 31.839 31.3307 31.6886 31.3573 31.5429Z" fill="white"/>
<path d="M33.6968 34.6344C34.0202 35.0797 34.4529 35.4343 34.9531 35.664C35.2453 35.8425 35.5582 35.9847 35.8849 36.0873L36.0852 36.1495C36.2165 36.1964 36.3477 36.2414 36.4755 36.2971C35.919 36.2253 35.3812 36.0491 34.8902 35.7776C34.3731 35.5428 33.952 35.1381 33.6968 34.6309L33.6968 34.6344Z" fill="white"/>
<path d="M38.7891 32.4395C39.0307 32.5804 39.2592 32.7428 39.4718 32.9247C39.5394 32.9916 39.5993 33.066 39.6503 33.1463C39.5659 33.1051 39.4845 33.0577 39.4069 33.0047C39.1794 32.8436 38.9077 32.7057 38.7891 32.4395Z" fill="white"/>
<path d="M39.8667 34.2246C40.0749 34.4114 40.2664 34.616 40.4389 34.8362C40.4909 34.9162 40.5348 35.0013 40.5699 35.09C40.4952 35.0315 40.4244 34.9682 40.358 34.9005C40.1673 34.6984 39.9289 34.509 39.8667 34.2246Z" fill="white"/>
<path d="M33.0171 29.8379C33.533 29.8323 34.0365 29.9966 34.4498 30.3054C33.9587 30.1568 33.496 30.0167 33.0171 29.8379Z" fill="white"/>
<path d="M32.1973 33.1797C32.7331 33.8941 33.5059 34.3593 34.1646 34.9455C33.3991 34.5104 32.5852 34.0031 32.1973 33.1797Z" fill="white"/>
<path d="M39.561 33.2598C39.8019 33.3916 40.0195 33.5622 40.205 33.7647C40.4062 33.9402 40.6355 34.096 40.849 34.2626C40.4751 34.1598 40.1441 33.9395 39.9051 33.6341C39.7963 33.5058 39.6699 33.3934 39.561 33.2598Z" fill="white"/>
<path d="M31.2144 30.3945C31.5275 30.7749 31.7702 31.2081 31.9311 31.6738C31.7638 31.4936 31.6262 31.288 31.5234 31.0646C31.3905 30.8567 31.2877 30.6311 31.2179 30.3945L31.2144 30.3945Z" fill="white"/>
<path d="M40.0206 33.9778C40.261 34.2025 40.5366 34.404 40.6961 34.6983C40.8513 34.8889 41.0379 35.0516 41.248 35.1792C40.9581 35.1016 40.7058 34.9226 40.5368 34.6747C40.3359 34.4625 40.1625 34.226 40.0205 33.9707L40.0206 33.9778Z" fill="white"/>
<path d="M32.0464 29.8574C32.5377 29.8978 33.0179 30.0256 33.4643 30.2348C33.2184 30.2312 32.9748 30.1869 32.7434 30.1037C32.5013 30.0544 32.2673 29.9715 32.0482 29.8574L32.0464 29.8574Z" fill="white"/>
<path d="M38.8256 36.0025C39.3637 35.8929 39.9213 35.9305 40.4398 36.1113C39.8999 36.1113 39.3606 36.0749 38.8256 36.0025Z" fill="white"/>
<path d="M39.6956 35.5405C39.8467 35.4482 40.0262 35.4136 40.2008 35.4432C40.4572 35.5447 40.7049 35.6672 40.9412 35.8094C40.6771 35.7476 40.42 35.6574 40.1646 35.5708C40.0078 35.5754 39.851 35.567 39.6956 35.5458L39.6956 35.5405Z" fill="white"/>
<path d="M40.8154 35.4004C41.201 35.485 41.5563 35.6726 41.8436 35.9433C41.4684 35.832 41.119 35.6474 40.8154 35.4004Z" fill="white"/>
<path d="M37.9412 36.082C38.2273 36.105 38.5118 36.1456 38.793 36.2033C39.0673 36.2244 39.3747 36.1585 39.6528 36.2132C40.2262 36.2838 40.7891 36.4229 41.3293 36.6276C41.1125 36.612 40.8983 36.5701 40.6916 36.503C40.346 36.4258 39.9831 36.3895 39.629 36.3442C39.3366 36.2844 39.0647 36.3482 38.7707 36.3026C38.4767 36.2569 38.2175 36.1296 37.9341 36.082L37.9412 36.082Z" fill="white"/>
<path d="M37.4155 36.0332C37.7375 36.0744 38.0557 36.1414 38.367 36.2335C38.4596 36.2772 38.5581 36.3069 38.6595 36.3216C39.0701 36.3541 39.5259 36.2589 39.932 36.3975C39.4824 36.36 39.0888 36.4884 38.641 36.4527C38.5301 36.4345 38.4226 36.4001 38.3218 36.3505C38.0255 36.2306 37.7084 36.1656 37.4155 36.0332Z" fill="white"/>
<path d="M38.6314 35.9153C38.8898 35.9294 39.1416 36.0125 39.3806 36.0356C39.5989 36.0457 39.8148 36.0865 40.0218 36.1567C39.8095 36.1767 39.5958 36.1782 39.3832 36.1612C39.119 36.1245 38.864 36.0387 38.6313 35.9082L38.6314 35.9153Z" fill="white"/>
<path d="M39.4457 35.8208C39.6394 35.7331 39.8496 35.6882 40.0622 35.6891C40.3999 35.7578 40.7272 35.8703 41.0358 36.0236C40.6993 35.9806 40.3669 35.9102 40.0419 35.8131C39.8432 35.8039 39.6442 35.8053 39.4457 35.8173L39.4457 35.8208Z" fill="white"/>
<path d="M39.8589 33.6953C40.0765 33.8793 40.3071 34.0473 40.5489 34.1982C40.7392 34.4091 40.9557 34.5948 41.1932 34.7509C40.9108 34.6775 40.6569 34.5209 40.4647 34.3014C40.2174 34.1504 40.0097 33.9427 39.8589 33.6953Z" fill="white"/>
<path d="M38.5599 32.1992C39.001 32.5375 39.5487 32.6876 39.9689 33.0596C40.2302 33.2543 40.5013 33.4354 40.7812 33.6023C40.3634 33.4573 39.9726 33.2436 39.625 32.9701C39.2694 32.7178 38.833 32.5511 38.5581 32.1992L38.5599 32.1992Z" fill="white"/>
<path d="M38.1357 31.7304C38.5913 31.867 38.9527 32.1828 39.3349 32.4473C39.4587 32.5397 39.5775 32.6387 39.6908 32.7437C39.5471 32.6805 39.4067 32.61 39.27 32.5327C38.8754 32.2869 38.4949 32.0191 38.1304 31.7305L38.1357 31.7304Z" fill="white"/>
<path d="M35.73 35.8613C36.2937 36.0254 36.8333 36.2693 37.4193 36.3376C37.7098 36.3816 38.0019 36.4131 38.3048 36.4658C38.6077 36.5185 38.8618 36.6759 39.154 36.7287C38.8533 36.7308 38.5745 36.5878 38.2896 36.5668C38.0046 36.5458 37.7036 36.5108 37.4043 36.4687C36.8094 36.395 36.2626 36.1229 35.7335 35.8613L35.73 35.8613Z" fill="white"/>
<path d="M38.2349 32.3789C38.4927 32.5647 38.7668 32.7267 39.0539 32.8631C39.511 33.1343 39.9473 33.4393 40.3588 33.7756C39.8169 33.4433 39.2785 33.1092 38.7383 32.7716C38.55 32.6693 38.3799 32.5366 38.2349 32.3789Z" fill="#FFBF3F"/>
<path d="M37.6245 34.5059C38.1079 34.8103 38.6881 34.7991 39.2199 34.9581C39.7557 35.118 40.2686 35.3463 40.7461 35.6372C40.2444 35.4019 39.7263 35.2033 39.1957 35.0432C38.6762 34.8788 38.0676 34.8742 37.6281 34.5058L37.6245 34.5059Z" fill="#FFBF3F"/>
<path d="M38.9097 34.0723C39.1845 34.1659 39.4713 34.1886 39.7411 34.3105C39.9824 34.4736 40.1969 34.6732 40.3768 34.9022C40.1387 34.7517 39.9424 34.5178 39.7027 34.3904C39.463 34.2629 39.1514 34.2262 38.9097 34.0723Z" fill="#FFBF3F"/>
<path d="M38.2695 35.7324C38.481 35.7482 38.679 35.842 38.8251 35.9956C38.772 35.9818 38.7258 35.9627 38.6779 35.9454C38.5275 35.9061 38.3878 35.8333 38.2695 35.7324Z" fill="#FFBF3F"/>
<path d="M32.4507 30.5215C32.8051 30.6057 33.1682 30.665 33.4565 30.9071C33.2793 30.8659 33.1212 30.7786 32.9511 30.7338C32.7724 30.6962 32.6025 30.6247 32.4507 30.5233L32.4507 30.5215Z" fill="#FFBF3F"/>
<path d="M33.2725 30.1562C33.5243 30.2447 33.8044 30.3294 33.9352 30.562C33.7166 30.4149 33.4578 30.346 33.2725 30.1562Z" fill="#FFBF3F"/>
<path d="M40.0003 33.8121C39.7122 33.6054 39.4158 33.4624 39.1382 33.2344C39.4804 33.3288 39.7829 33.5315 40.0003 33.8121Z" fill="#FFBF3F"/>
<path d="M39.697 35.541C39.5096 35.4607 39.331 35.3611 39.1641 35.244C39.048 35.1987 38.9357 35.1439 38.8286 35.0801C39.1652 35.1256 39.4747 35.2889 39.7023 35.5409L39.697 35.541Z" fill="#FFBF3F"/>
</g>
<path opacity="0.2" d="M69.5434 51.4318C68.6652 52.3226 67.6333 53.2445 66.8549 53.503C65.9442 53.8067 62.5542 54.4941 61.7089 54.792C60.8636 55.0899 58.4373 56.4657 55.076 55.9676C53.0323 55.6654 49.2223 53.7641 45.8466 51.7199C47.2889 52.29 49.5718 53.1442 51.0885 53.4873C53.0537 53.9351 56.1996 53.2565 56.0787 53.1636C55.9577 53.0707 54.609 51.9851 55.4002 52.2838C56.4331 52.6579 57.4881 52.9677 58.5593 53.2115C58.1922 52.8425 57.2018 51.8836 58.0044 52.2937C58.6361 52.5944 59.2882 52.8505 59.9558 53.06C59.6693 52.8162 59.2189 52.1807 59.2413 52.0903C59.2637 51.9999 60.1273 52.2999 60.1273 52.2999C60.1273 52.2999 59.5469 51.7733 59.9482 51.9863C60.3495 52.1992 61.4655 52.6584 61.3287 52.5656C61.1918 52.4728 60.4286 51.8785 61.1792 52.1934C61.9298 52.5083 63.5957 52.6751 63.4715 52.6229C63.3473 52.5708 62.88 52.0469 63.3168 52.2702C63.7536 52.4936 64.6576 52.496 65.6692 52.6994C67.6073 53.0749 68.3993 52.2448 69.5434 51.4318Z" fill="white"/>
<path d="M56.0009 48.17C56.3938 48.6838 56.0744 49.5511 56.0744 49.5511C56.4188 50.8636 56.466 52.2365 56.2125 53.5695C55.7744 55.6496 49.9721 57.9569 48.4243 58.2244C46.8764 58.4918 34.6656 56.6677 32.7798 56.1804C30.894 55.6931 27.366 55.3855 26.5353 54.2538C26.5353 54.2538 13.6942 51.868 10.0544 51.5081C6.41456 51.1482 0.564276 51.9185 0.387293 51.4085C0.210309 50.8985 0.890809 50.3134 1.73641 50.0597C2.58202 49.8061 7.45351 49.7185 7.45351 49.7185C7.45351 49.7185 7.46863 48.8551 10.9433 48.8764C10.9433 48.8764 11.292 48.1522 13.4442 47.7973C15.5965 47.4424 20.0862 47.8953 20.0862 47.8953C20.4176 47.7284 21.4842 47.2114 21.7217 47.2681C21.7217 47.2681 22.0309 46.2221 26.6711 46.6899C26.6711 46.6899 25.4642 46.1394 26.0071 45.366C26.5501 44.5926 29.0656 44.8225 29.0656 44.8225C29.0656 44.8225 27.6258 44.3532 27.8192 43.6867C28.0126 43.0201 31.6759 43.4453 31.9131 43.4631C32.1503 43.4809 30.3283 42.7667 30.7168 41.9165C31.1053 41.0664 33.305 41.6647 33.305 41.6647L32.3765 41.6978C32.3765 41.6978 32.4306 41.1012 33.4895 40.9911C34.5485 40.881 38.1875 41.6248 38.1875 41.6248" fill="#FFBF3F"/>
<g opacity="0.2">
<path d="M26.5357 54.2514C28.7688 54.5664 32.0003 54.9734 34.2669 55.2758L34.2221 55.4388C33.4571 55.1164 32.715 54.7422 32.001 54.3188C31.8463 54.2049 31.7008 54.144 31.6021 53.9501C31.5103 53.4855 32.3223 53.7257 32.558 53.7806L32.4899 53.9155C31.9441 53.4946 31.438 53.0244 30.978 52.511C30.8897 52.4192 30.8278 52.3054 30.7988 52.1814C30.7963 51.8364 32.2122 51.9149 32.4951 51.8952C32.9515 51.8919 33.408 51.9046 33.8646 51.9332C33.4082 51.9365 32.9518 51.9397 32.4954 51.9429C32.0418 51.9513 31.5893 51.9912 31.1411 52.0622C31.0647 52.0747 30.9911 52.101 30.9241 52.1398C30.9047 52.1541 30.9118 52.1523 30.9084 52.1682C30.9395 52.266 30.9928 52.3552 31.0641 52.429C31.5322 52.9221 32.0395 53.3764 32.581 53.7875L32.8692 54.0172L32.5147 53.9224C30.2007 53.4081 33.8818 55.1069 34.2934 55.2756L34.8259 55.5195C32.0581 55.134 29.2815 54.7662 26.5339 54.2443L26.5357 54.2514Z" fill="black"/>
<path d="M34.8059 51.2588C33.6412 51.1716 32.4781 51.0683 31.3201 50.9191C30.7392 50.8277 30.1444 50.7806 29.5944 50.5545C29.5624 50.54 29.5338 50.519 29.5102 50.4931C29.4866 50.4671 29.4685 50.4365 29.4571 50.4033C29.4354 49.8321 32.0374 49.2882 32.5606 49.2173C33.1508 49.1317 33.7409 49.2691 34.3218 49.3534C35.4749 49.5522 36.6159 49.7971 37.7553 50.0544L37.6945 50.2141C36.1756 49.3208 33.4869 47.6274 37.1837 47.7781C37.7428 47.7936 38.2968 47.8339 38.8527 47.8937L38.7971 48.0303C38.2044 47.5267 37.5518 47.0555 37.1577 46.3683C37.0232 46.1021 37.2556 45.9448 37.4799 45.8866C38.0533 45.7663 38.6409 45.7276 39.2251 45.7716L39.1922 45.8603C39.0143 45.7218 37.8984 44.7797 38.5864 44.7554C39.6854 44.806 40.7559 45.0938 41.8261 45.3251C41.0466 45.1643 40.2636 45.0142 39.4755 44.9012C39.1445 44.87 38.7865 44.7823 38.4615 44.8553C38.4456 44.8555 38.4527 44.866 38.4493 44.8837C38.4755 45.0835 38.6659 45.236 38.8067 45.3925C38.9859 45.5641 39.1749 45.7252 39.3727 45.875L39.2188 45.8761C38.9375 45.878 37.0229 45.8102 37.2759 46.3215C37.702 47.0261 38.4664 47.5514 39.0964 48.0777C38.4608 48.0097 37.8165 47.9576 37.1777 47.9427C36.9212 47.9445 35.2312 47.8715 35.5159 48.349C35.7129 48.6908 36.0685 48.9359 36.3833 49.1761C36.9931 49.6033 37.6254 49.9974 38.2775 50.3568C36.9574 50.0512 35.6196 49.7493 34.2929 49.5146C33.7261 49.4302 33.1484 49.2927 32.5776 49.3711C31.5987 49.5354 30.5599 49.7392 29.6876 50.2265C29.5891 50.2998 29.4888 50.3889 29.6433 50.4657C30.1632 50.6867 30.7704 50.7443 31.3302 50.8447C32.4813 51.0135 33.6428 51.1503 34.8041 51.2642L34.8059 51.2588Z" fill="black"/>
<path d="M34.3262 40.3235C34.8206 40.6915 35.3544 41.1176 35.9864 41.1821C36.7175 41.2512 37.4607 41.2708 38.1968 41.2868C37.8051 41.4435 37.3548 41.5599 37.0241 41.8258C36.9996 41.8543 37.0242 41.84 37.0028 41.8153C38.2421 41.9392 39.545 41.808 40.7902 41.7761C40.199 41.9802 39.5085 42.1479 38.9657 42.4525C38.9569 42.4525 38.9482 42.4756 38.9657 42.4525C38.9674 42.4407 38.9673 42.4288 38.9655 42.4171C38.9626 42.4051 38.9556 42.3946 38.9458 42.3872C39.024 42.417 39.1055 42.4372 39.1886 42.4474C39.8439 42.5506 40.5218 42.5901 41.1855 42.6331C40.8472 42.8063 40.5206 43.0012 40.2078 43.2168C40.1215 43.2846 39.9737 43.3953 39.9425 43.4805C41.0984 43.8261 42.4813 43.7562 43.6903 44.105C44.2528 44.2606 44.7884 44.5007 45.2787 44.8173C44.7777 44.5246 44.2369 44.3061 43.6731 44.1688C42.5373 43.9097 41.3714 43.9109 40.2166 43.7191C39.8854 43.6631 39.6051 43.5466 39.9408 43.2364C40.2258 42.9996 40.5358 42.7945 40.8652 42.6248L40.8981 42.7767C40.3141 42.7401 39.7389 42.7071 39.1579 42.6121C39.0463 42.5828 38.7596 42.5742 38.8026 42.397C38.8144 42.3628 38.8364 42.333 38.8657 42.3117C39.0099 42.2182 39.165 42.1428 39.3276 42.0872C39.601 41.9809 39.8764 41.8888 40.1553 41.8019L40.183 41.9662C39.1216 41.9737 38.0273 42.0947 36.9648 41.943C36.5404 41.7107 37.7035 41.338 37.8659 41.2767L37.8844 41.3916C37.2473 41.359 36.612 41.3316 35.978 41.2459C35.3441 41.1601 34.812 40.7234 34.3279 40.3164L34.3262 40.3235Z" fill="black"/>
<path d="M34.6372 49.4897C33.5711 48.8356 32.4839 48.1941 31.5579 47.3462C30.6851 46.4996 32.2271 46.655 32.7122 46.7117C33.3354 46.7834 33.9519 46.8922 34.5666 47.0188L34.5076 47.1749C32.9088 46.2362 31.0892 45.108 34.3669 45.2936L34.3219 45.4336C34.0178 45.2094 33.611 44.9699 33.5603 44.5545C33.5975 43.8147 36.9836 44.5674 37.5117 44.7034C36.6708 44.5296 35.8187 44.4144 34.9618 44.3588C34.562 44.3616 34.098 44.2906 33.7241 44.4631C33.5016 44.769 34.4165 45.3074 34.6387 45.4526L34.3502 45.437C33.9966 45.4158 33.642 45.4184 33.2888 45.4445C33.0841 45.4441 32.8827 45.4967 32.7043 45.5972C32.685 45.6239 32.6885 45.615 32.6922 45.6398C32.9123 45.992 33.3332 46.2137 33.6764 46.459C34.1065 46.7443 34.6003 47.0309 35.0515 47.2896C34.4457 47.1718 31.8088 46.5483 31.4258 46.9207C31.4265 47.0233 31.5655 47.1692 31.6457 47.2535C32.5363 48.107 33.6132 48.784 34.6354 49.4844L34.6372 49.4897Z" fill="black"/>
<path d="M7.45459 49.7148C11.4117 49.9133 15.351 50.34 19.2885 50.7597C23.2192 51.229 27.1656 51.661 31.0387 52.4916C30.0645 52.3216 29.0903 52.1516 28.1075 52.0206C21.2634 51.096 14.3338 50.349 7.45459 49.7148Z" fill="black"/>
<path d="M10.945 48.8728C14.1595 48.889 17.364 49.2237 20.5646 49.5124C23.7619 49.8435 26.9628 50.1747 30.1264 50.7308C26.939 50.3164 23.7418 49.9994 20.5446 49.6876C17.3474 49.3759 14.15 49.0359 10.9414 48.8711L10.945 48.8728Z" fill="black"/>
<path d="M20.0874 47.8906C22.0729 47.9739 24.0503 48.1545 26.0244 48.3793C27.9986 48.6042 29.9696 48.8927 31.8893 49.4134L31.1576 49.2735C27.5585 48.6586 23.7205 48.3036 20.0874 47.8906Z" fill="black"/>
<path d="M21.7222 47.2676C23.6847 47.4134 25.6127 47.8634 27.437 48.6017C25.5793 48.0841 23.6144 47.6628 21.7222 47.2676Z" fill="black"/>
<path d="M26.668 46.6855C28.5828 46.7679 30.4708 47.1658 32.2561 47.8631C30.4146 47.3932 28.5349 47.0049 26.668 46.6855Z" fill="black"/>
<path d="M29.0625 44.8184C30.2811 44.8582 31.4821 45.1207 32.6062 45.5929C31.4104 45.3572 30.2427 45.0966 29.0625 44.8184Z" fill="black"/>
<path d="M31.9165 43.459C32.7614 43.5026 33.6006 43.6222 34.4241 43.8163C35.2547 43.9802 36.0646 44.2355 36.839 44.5776C36.1422 44.3667 35.1076 44.1511 34.3864 43.9899C33.6652 43.8287 32.6375 43.6007 31.9166 43.4678L31.9165 43.459Z" fill="black"/>
<path d="M32.4546 41.4961C33.5429 41.6497 34.5923 42.0078 35.5474 42.5516C34.5104 42.2564 33.4673 41.8587 32.4546 41.4961Z" fill="black"/>
<path d="M54.157 55.7544C54.69 55.2655 55.1937 54.7457 55.6656 54.1975C56.0255 53.7987 56.4047 53.3909 56.617 52.8905C56.6692 52.7225 56.6765 52.5437 56.6381 52.372C56.4916 51.6654 56.1615 51.0203 55.8438 50.375C55.7609 50.1686 55.579 49.9558 55.572 49.7224C55.5791 49.227 55.5946 48.6607 55.9155 48.2587L55.9279 48.271C55.8379 48.4256 55.783 48.5981 55.767 48.7763C55.7111 49.12 55.7082 49.4702 55.7584 49.8148C56.0298 50.2889 56.2652 50.7829 56.4624 51.2923C56.6429 51.7988 56.8575 52.374 56.6791 52.9148C56.0854 54.0177 55.2318 55.1347 54.1605 55.7544L54.157 55.7544Z" fill="black"/>
</g>
<path opacity="0.3" d="M36.0577 48.3485C36.5248 48.8635 37.1254 49.2361 37.6944 49.6354C39.1166 50.6143 40.7144 51.4079 42.1996 52.2873C42.4998 52.4621 42.8018 52.6368 43.0986 52.8276C42.7826 52.6777 42.4719 52.5189 42.1577 52.3636C40.6147 51.5679 39.0169 50.7795 37.6173 49.7421C37.0676 49.3144 36.4703 48.9082 36.0576 48.3379L36.0577 48.3485Z" fill="white"/>
<path opacity="0.3" d="M35.481 56.2571C37.3287 56.6102 40.1757 56.9315 42.0636 57.2171C42.6797 57.287 45.6057 57.7705 46.1788 57.7558C47.0104 57.7765 47.8418 57.7582 48.6731 57.7382C47.8421 57.806 47.011 57.8578 46.1777 57.8602C44.7905 57.824 43.4174 57.5401 42.04 57.3836C39.8474 57.0453 37.6342 56.7903 35.4863 56.25L35.481 56.2571Z" fill="white"/>
<path opacity="0.3" d="M30.3232 50.2617C31.3095 50.3874 32.2939 50.4919 33.2565 50.7717C32.257 50.7683 31.2653 50.5959 30.3232 50.2617Z" fill="white"/>
</svg>
