<svg width="52" height="66" viewBox="0 0 52 66" fill="none" xmlns="http://www.w3.org/2000/svg">
<path opacity="0.6" d="M29.8 38C29.8 38 47 32.7458 47 25.7263C47 18.7068 24.6309 14.2066 24.6309 8.71906C24.6309 3.2315 34.3353 0 34.3353 0C34.3353 0 18.9458 3.48283 19.0001 10.4246C19.0545 17.3663 33.7288 22.046 35.1501 26.4624C37.1055 32.5902 29.8 38 29.8 38Z" fill="#EBEBEB"/>
<path opacity="0.6" d="M31.2503 38C31.2503 38 14 33.8774 14 28.3365C14 22.7957 36.3437 19.2019 36.3346 14.869C36.3256 10.5361 26.5655 8 26.5655 8C26.5655 8 42 10.7224 42 16.2031C42 21.6839 25.0584 25.47 23.8599 29.9531C22.6615 34.4363 31.2503 38 31.2503 38Z" fill="#EBEBEB"/>
<path d="M2.81915 58.1426C3.96403 59.8627 5.6613 61.1409 7.63071 61.7662C9.60011 62.3915 11.7239 62.3264 13.6513 61.5818C14.4601 61.2594 15.2319 60.8508 15.9532 60.3631L13.877 57.294C13.4906 57.5639 13.0796 57.7966 12.6494 57.9891C11.4636 58.5365 10.1199 58.637 8.8659 58.2721C7.61189 57.9072 6.53196 57.1014 5.82507 56.0032C3.57739 52.8619 2.76498 45.6855 5.03072 42.9233C5.18417 42.7157 5.83411 42.3908 8.46091 42.9233C8.94836 43.0317 9.49899 43.149 10.1218 43.3205C10.6032 43.4875 11.1036 43.5936 11.6113 43.6365L11.6745 41.8311L11.855 40.0257C11.6835 40.0257 11.4127 39.9174 11.0697 39.8181C9.85525 39.4666 8.6146 39.213 7.35964 39.0599C5.4279 38.8613 3.40588 39.0599 2.16018 40.6215C-1.49568 45.0898 0.0118068 54.2159 2.81915 58.1426Z" fill="#FFBF3F"/>
<path d="M51.9998 34.1309C51.9998 34.1309 50.0681 50.7583 46.7011 57.7631C43.3341 64.7679 38.5769 65.5532 35.6793 65.5532H25.0187C22.085 65.5532 17.373 64.7859 13.9789 57.7992C10.5848 50.8124 8.60791 34.185 8.60791 34.185L51.9998 34.1309Z" fill="#FFBF3F"/>
<path d="M49.6921 47.9434C49.3581 49.4779 48.997 50.9854 48.5908 52.4568L12.0593 52.5109C11.6531 51.0847 11.283 49.5682 10.9399 48.0427L49.6921 47.9434Z" fill="#428FEC"/>
<path d="M48.0874 54.1094C47.8437 54.9037 47.5819 55.662 47.3111 56.348L13.3613 56.4022C13.0814 55.7162 12.8196 54.9579 12.5669 54.1726L48.0874 54.1094Z" fill="#428FEC"/>
<path d="M50.5351 43.7461C50.3997 44.4682 50.2553 45.2175 50.1018 45.9757L10.5373 46.0389C10.3748 45.2807 10.2304 44.5314 10.104 43.8093L50.5351 43.7461Z" fill="#428FEC"/>
</svg>
