<svg width="89" height="56" viewBox="0 0 89 56" fill="none" xmlns="http://www.w3.org/2000/svg">
<path d="M88.5572 23.8281C88.5508 23.9095 88.5228 23.9876 88.476 24.0545C88.4293 24.1214 88.3655 24.1746 88.2913 24.2086L62.9371 38.8398C62.5795 39.0461 62.2884 39.4083 62.2884 39.6513C62.2884 39.8943 61.9996 40.2541 61.6443 40.4627L57.108 43.0896C56.7527 43.2959 56.4593 43.2661 56.4593 43.0231C56.4593 42.7802 56.1705 42.755 55.8152 42.9613L33.4821 55.8458C33.2818 55.9475 33.0603 56.0005 32.8357 56.0005C32.6111 56.0005 32.3896 55.9475 32.1893 55.8458L0.270142 37.4141C0.196803 37.3811 0.133419 37.3295 0.0863461 37.2643C0.0392736 37.1991 0.0101691 37.1227 0.00195312 37.0427C0.00195312 36.9235 0.00195312 36.1602 0.00195312 35.9631C0.0136568 36.0388 0.0441217 36.1103 0.0905678 36.1711C0.137014 36.232 0.197961 36.2803 0.26785 36.3115L1.13202 36.8089L32.1985 54.7455C32.3991 54.8462 32.6204 54.8986 32.8449 54.8986C33.0693 54.8986 33.2906 54.8462 33.4913 54.7455L56.4547 41.4873C56.81 41.281 57.1011 41.3086 57.1011 41.5492C57.1011 41.7899 57.3899 41.822 57.7475 41.6157L61.0002 39.7361C61.3601 39.5298 61.6489 39.1676 61.6489 38.9246C61.6489 38.6817 61.9377 38.3195 62.2953 38.1132L87.418 23.608L88.5527 22.7324V22.7622C88.5549 22.9181 88.5549 23.7066 88.5572 23.8281Z" fill="#FFBF3F"/>
<path opacity="0.15" d="M32.7234 54.8989V55.99C32.5404 55.9818 32.3613 55.9341 32.1985 55.8502L0.270142 37.4139C0.196803 37.3809 0.133419 37.3293 0.0863461 37.2641C0.0392736 37.1989 0.0101691 37.1225 0.00195312 37.0425C0.00195312 36.9233 0.00195312 36.16 0.00195312 35.9629C0.0136568 36.0385 0.0441217 36.1101 0.0905678 36.1709C0.137014 36.2318 0.197961 36.2801 0.26785 36.3113L32.1985 54.7453C32.3605 54.8333 32.5395 54.8857 32.7234 54.8989Z" fill="#428FEC"/>
<path d="M32.1965 54.7424L0.26819 36.3106C-0.0893965 36.1043 -0.0893965 35.7697 0.26819 35.5634L55.1026 3.94681C55.3031 3.84566 55.5245 3.79297 55.7491 3.79297C55.9736 3.79297 56.195 3.84566 56.3955 3.94681L88.2871 22.3579C88.6447 22.5642 88.6447 22.8966 88.2871 23.1029L62.2933 38.11C61.9358 38.3163 61.6469 38.6808 61.6469 38.9215C61.6469 39.1622 61.3581 39.5266 61.0005 39.7329L57.7456 41.6125C57.388 41.8188 57.0992 41.789 57.0992 41.5484C57.0992 41.3077 56.8103 41.2779 56.4528 41.4842L33.4824 54.7424C33.283 54.8429 33.0628 54.8953 32.8395 54.8953C32.6161 54.8953 32.3959 54.8429 32.1965 54.7424Z" fill="#FFBF3F"/>
<path opacity="0.4" d="M32.1965 54.7424L0.26819 36.3106C-0.0893965 36.1043 -0.0893965 35.7697 0.26819 35.5634L55.1026 3.94681C55.3031 3.84566 55.5245 3.79297 55.7491 3.79297C55.9736 3.79297 56.195 3.84566 56.3955 3.94681L88.2871 22.3579C88.6447 22.5642 88.6447 22.8966 88.2871 23.1029L62.2933 38.11C61.9358 38.3163 61.6469 38.6808 61.6469 38.9215C61.6469 39.1622 61.3581 39.5266 61.0005 39.7329L57.7456 41.6125C57.388 41.8188 57.0992 41.789 57.0992 41.5484C57.0992 41.3077 56.8103 41.2779 56.4528 41.4842L33.4824 54.7424C33.283 54.8429 33.0628 54.8953 32.8395 54.8953C32.6161 54.8953 32.3959 54.8429 32.1965 54.7424Z" fill="white"/>
<path d="M57.1992 40.7323L56.5986 40.3862L61.3871 37.6172L61.5521 37.7135L57.1992 40.7323Z" fill="#428FEC"/>
<path d="M61.1568 37.7576L57.5901 39.8205C57.4596 39.8942 57.348 39.9971 57.2641 40.1212C57.1801 40.2453 57.1262 40.3872 57.1064 40.5357C57.1064 40.7764 57.3242 40.8475 57.5924 40.6916L61.1591 38.6286C61.2896 38.555 61.4012 38.4521 61.4851 38.328C61.5691 38.2039 61.623 38.0619 61.6427 37.9134C61.6405 37.6727 61.4227 37.604 61.1568 37.7576Z" fill="#428FEC"/>
<path d="M60.0107 38.4125V35.8911C60.0107 34.745 62.0348 31.5106 64.5677 30.0482L85.0578 18.2227L86.8687 22.8942L60.0107 38.4125Z" fill="#F5F5F5"/>
<path d="M85.0584 18.2241L64.5523 30.0634C62.0194 31.5212 59.9839 34.7693 59.993 35.904L60.0045 38.4254L28.459 20.2023V17.6808C28.459 16.5347 30.4853 13.3004 33.0182 11.838L53.5129 0.0078125L85.0584 18.2241Z" fill="#FAFAFA"/>
<path d="M85.0584 18.2231L64.5523 30.0624C62.0194 31.5203 59.9839 34.7684 59.993 35.903L60.0045 38.4245L28.459 20.2013V17.6799C28.459 16.5338 30.4853 13.2995 33.0182 11.837L53.5221 0L85.0584 18.2231Z" fill="#FAFAFA"/>
<path d="M53.5221 0.255373L84.6367 18.2241L64.4537 29.8754C61.9093 31.3424 59.7776 34.6226 59.7867 35.904V38.0426L28.6699 20.0762V17.6854C28.6699 16.6493 30.671 13.4448 33.1213 12.0305L53.5221 0.255373ZM53.5221 0.0078125L33.0251 11.8448C30.4922 13.3073 28.4567 16.5508 28.4659 17.6877V20.2091L60.0205 38.4208L60.0091 35.8994C60.0091 34.7647 62.0354 31.5167 64.5683 30.0588L85.0584 18.2241L53.5221 0.0078125Z" fill="#428FEC"/>
<path d="M60.0045 35.9641C60.0045 34.818 57.9186 33.8804 55.3811 35.3337L34.8841 47.079L33.0732 53.9809L60.0114 38.4167C60.0114 38.4167 60.0137 37.101 60.0045 35.9641Z" fill="#F5F5F5"/>
<path d="M74.9844 27.134L69.8361 30.029C68.9811 30.5173 68.1284 31.0078 67.2803 31.5075C66.4321 32.0072 65.5863 32.5184 64.7749 33.08C63.9553 33.6302 63.1797 34.2433 62.4551 34.9137C61.7256 35.5835 61.1352 36.3905 60.7176 37.2885C61.1689 36.4155 61.7836 35.6373 62.5285 34.9963C63.2605 34.3429 64.0423 33.7475 64.8665 33.2152C66.5078 32.1379 68.2315 31.182 69.9438 30.2124L75.0669 27.2761L77.6204 25.7884L80.1602 24.2847L77.5677 25.6967L74.9844 27.134ZM61.7583 34.3453C62.4044 33.5265 63.1428 32.7851 63.9588 32.1356C64.7704 31.4812 65.6209 30.8764 66.5055 30.3247C67.388 29.7677 68.3049 29.268 69.2241 28.766L74.707 25.7059L77.4394 24.1632L80.1602 22.5977L77.3866 24.0693L74.636 25.5615L69.1347 28.5781C67.3009 29.5798 65.4671 30.6411 63.8626 32.0164C63.0508 32.6863 62.32 33.4486 61.6849 34.288C61.0491 35.1266 60.57 36.0732 60.2706 37.0822C60.4395 36.5875 60.6504 36.1083 60.901 35.6495C61.1498 35.1916 61.4366 34.7553 61.7583 34.3453ZM57.2541 38.359C56.8103 38.4598 56.3761 38.5994 55.9567 38.7761C55.12 39.1268 54.3155 39.5463 53.5201 39.9773C52.7247 40.4082 51.9453 40.8712 51.1614 41.3182L48.8187 42.6821C47.2646 43.599 45.7036 44.5159 44.1541 45.4488C42.6045 46.3817 41.0573 47.3147 39.5215 48.2682C41.1054 47.3949 42.6756 46.4986 44.2435 45.6001C45.8113 44.7015 47.37 43.7869 48.9333 42.8815C50.4966 41.9761 52.0462 41.0477 53.6095 40.1308C54.3855 39.6735 55.1842 39.2558 56.0025 38.8793C56.4099 38.6894 56.8334 38.536 57.2678 38.4208C57.4849 38.3637 57.7082 38.3337 57.9326 38.3314C58.1587 38.3207 58.3812 38.3906 58.5607 38.5286C58.3848 38.3806 58.1624 38.2995 57.9326 38.2994C57.7048 38.2916 57.477 38.3116 57.2541 38.359ZM58.4002 36.6467C57.9239 36.5487 57.4314 36.5613 56.9607 36.6833C56.0307 36.9294 55.1306 37.2768 54.2765 37.7194C53.4146 38.1412 52.5803 38.6134 51.7551 39.0948L49.2863 40.5526C47.6497 41.5406 46.0108 42.5262 44.3856 43.5325L41.9444 45.0431C41.1375 45.5565 40.3261 46.0608 39.5215 46.5789L42.004 45.1416L44.4727 43.6861L49.4009 40.752C51.0399 39.771 52.6628 38.7601 54.3544 37.8799C55.189 37.4231 56.0705 37.0581 56.9836 36.7911C57.4368 36.6553 57.915 36.6248 58.3819 36.7017C58.6136 36.7544 58.8301 36.8597 59.0145 37.0096C59.199 37.1595 59.3464 37.3498 59.4455 37.5658C59.3508 37.3439 59.2111 37.1441 59.0351 36.979C58.852 36.8195 58.6336 36.7056 58.3979 36.6467H58.4002Z" fill="#428FEC"/>
<path d="M33.0735 53.9781L34.8843 47.0808L3.34113 28.8691L1.53027 35.7641L33.0735 53.9781Z" fill="#428FEC"/>
<path d="M55.3846 35.3347L54.4677 35.8596L34.8853 47.0801L7.02107 30.991L3.35352 28.8661L23.8528 17.1231C25.7118 16.0572 26.7502 16.142 27.4814 16.5569L59.4579 35.0184C58.2934 34.3674 56.9456 34.4981 55.3846 35.3347Z" fill="#FAFAFA"/>
<path d="M26.3648 16.4855C26.714 16.4817 27.058 16.5703 27.362 16.7422L57.931 34.3923H57.8737C57.0806 34.3923 56.2347 34.6398 55.2789 35.151L54.362 35.6759L34.8781 46.8321L7.12396 30.8049L3.77044 28.868L23.942 17.3106C24.9093 16.7536 25.7001 16.4855 26.358 16.4855M26.358 16.2677C25.7299 16.2677 24.923 16.4969 23.8365 17.1227L3.3418 28.8657L7.00935 30.9906L34.8736 47.0797L54.456 35.8593L55.3729 35.3344C56.1308 34.8921 56.9854 34.6418 57.8622 34.6054C58.4136 34.6021 58.956 34.7445 59.4347 35.018L27.4582 16.5565C27.1223 16.3635 26.7408 16.2637 26.3534 16.2677H26.358Z" fill="#428FEC"/>
<path d="M33.4512 43.8782L50.9064 33.8062L51.8256 33.2812L52.4972 33.6686L51.578 34.1936L34.1205 44.2679L33.4512 43.8782Z" fill="#428FEC"/>
<path d="M31.8389 42.9465L49.2964 32.8745L50.2156 32.3496L50.8872 32.737L49.968 33.2619L32.5105 43.3339L31.8389 42.9465Z" fill="#428FEC"/>
<path d="M30.2256 42.0168L47.6831 31.9448L48.6 31.4199L49.2716 31.8073L48.3547 32.3322L30.8972 42.4042L30.2256 42.0168Z" fill="#428FEC"/>
<path d="M28.6152 41.0852L46.0705 31.0132L46.9897 30.4883L47.6613 30.8757L46.7421 31.4006L29.2869 41.4726L28.6152 41.0852Z" fill="#428FEC"/>
<path d="M27.0029 40.1555L44.4605 30.0835L45.3796 29.5586L46.0513 29.946L45.1321 30.4709L27.6768 40.5429L27.0029 40.1555Z" fill="#428FEC"/>
<path d="M25.3896 39.2239L42.8472 29.1519L43.7664 28.627L44.438 29.0143L43.5188 29.5393L26.0613 39.6113L25.3896 39.2239Z" fill="#428FEC"/>
<path d="M23.7773 38.2942L41.2349 28.2222L42.1518 27.6973L42.8234 28.0847L41.9065 28.6096L24.449 38.6816L23.7773 38.2942Z" fill="#428FEC"/>
<path d="M22.167 37.3626L39.6222 27.2905L40.5414 26.7656L41.213 27.153L40.2939 27.6779L22.8386 37.7499L22.167 37.3626Z" fill="#428FEC"/>
<path d="M20.5537 36.4329L38.0112 26.3609L38.9304 25.8359L39.602 26.2233L38.6829 26.7482L21.2276 36.8203L20.5537 36.4329Z" fill="#428FEC"/>
<path d="M18.9414 35.5012L36.3989 25.4292L37.3181 24.9043L37.9897 25.2917L37.0706 25.8166L19.613 35.8886L18.9414 35.5012Z" fill="#428FEC"/>
<path d="M17.3311 34.5715L34.7886 24.4995L35.7055 23.9746L36.3771 24.362L35.4602 24.8869L18.0027 34.9589L17.3311 34.5715Z" fill="#428FEC"/>
<path d="M15.7178 33.6399L33.173 23.5679L34.0922 23.043L34.7638 23.4304L33.8446 23.9553L16.3894 34.0273L15.7178 33.6399Z" fill="#428FEC"/>
<path d="M14.1055 32.7102L31.563 22.6382L32.4822 22.1133L33.1538 22.5007L32.2346 23.0256L14.7771 33.0976L14.1055 32.7102Z" fill="#428FEC"/>
<path d="M12.4922 31.7789L29.9497 21.7069L30.8666 21.1797L31.5405 21.5694L30.6213 22.0943L13.1638 32.1663L12.4922 31.7789Z" fill="#428FEC"/>
<path d="M10.8818 30.8489L28.3394 20.7769L29.2563 20.252L29.9279 20.6393L29.011 21.1643L11.5535 31.2363L10.8818 30.8489Z" fill="#428FEC"/>
<path d="M9.27148 29.9176L26.7267 19.8456L27.6459 19.3184L28.3175 19.708L27.3983 20.233L9.9431 30.305L9.27148 29.9176Z" fill="#428FEC"/>
<path d="M7.65625 28.9875L25.1138 18.9155L26.033 18.3906L26.7046 18.778L25.7854 19.3029L8.32787 29.3749L7.65625 28.9875Z" fill="#428FEC"/>
<path d="M34.6132 48.1073L37.992 46.418L34.5147 48.4855L31.7617 46.5097L34.6132 48.1073Z" fill="#428FEC"/>
<path d="M34.0153 50.3872L39.8215 47.0337L34.0864 50.1213L27.6338 46.6211L34.0153 50.3872Z" fill="#428FEC"/>
<path d="M2.38139 32.5156L2.29199 32.8549L9.40704 36.8089L2.38139 32.5156Z" fill="#428FEC"/>
<path d="M2.66895 31.4347L7.06542 33.6811L2.76063 31.084L2.66895 31.4347Z" fill="#428FEC"/>
<path d="M59.9991 27.4211C59.0346 28.0052 58.172 28.7431 57.4456 29.6055L56.79 29.225C57.5148 28.3609 58.3776 27.6228 59.3436 27.0405L77.7249 16.4551L78.3804 16.8333L59.9991 27.4211Z" fill="#428FEC"/>
<path d="M58.3862 26.4914C57.4203 27.0736 56.5574 27.8117 55.8327 28.6758L55.1748 28.3091C55.9012 27.446 56.7637 26.7073 57.7283 26.1223L76.1188 15.5254L76.7744 15.9036L58.3862 26.4914Z" fill="#428FEC"/>
<path d="M61.6114 28.3524C60.646 28.9353 59.7833 29.6733 59.0579 30.5368L58.4023 30.1586C59.1277 29.2951 59.9905 28.5571 60.9559 27.9741L79.328 17.3887L79.9836 17.7669L61.6114 28.3524Z" fill="#428FEC"/>
<path d="M55.1583 24.6281C54.1938 25.2122 53.3312 25.9501 52.6048 26.8126L51.9492 26.4344C52.6746 25.5709 53.5374 24.8328 54.5028 24.2499L72.8818 13.6621L73.5373 14.0426L55.1583 24.6281Z" fill="#428FEC"/>
<path d="M53.546 23.6978C52.5818 24.2814 51.7199 25.0194 50.9948 25.8823L50.3369 25.5041C51.0627 24.641 51.9254 23.903 52.8904 23.3196L71.2695 12.7227L71.925 13.1009L53.546 23.6978Z" fill="#428FEC"/>
<path d="M56.7736 25.5574C55.8081 26.1412 54.9454 26.88 54.22 27.7442L53.5645 27.3637C54.2898 26.5002 55.1526 25.7622 56.118 25.1792L74.4947 14.5938L75.1503 14.972L56.7736 25.5574Z" fill="#428FEC"/>
<path d="M50.3204 21.8328C49.3558 22.4178 48.4933 23.1565 47.7669 24.0196L47.1113 23.6391C47.8367 22.7756 48.6995 22.0375 49.6649 21.4546L68.0439 10.8691L68.6994 11.2474L50.3204 21.8328Z" fill="#428FEC"/>
<path d="M47.0948 19.9712C46.1294 20.5541 45.2667 21.2921 44.5413 22.1556L43.8857 21.7774C44.6109 20.9149 45.4737 20.1784 46.4393 19.5975L64.816 9.00977L65.4716 9.38798L47.0948 19.9712Z" fill="#428FEC"/>
<path d="M45.4816 19.0421C44.5165 19.6256 43.6538 20.3635 42.928 21.2266L42.2725 20.8484C42.9978 19.9842 43.8605 19.2454 44.826 18.6616L63.205 8.07617L63.8606 8.45439L45.4816 19.0421Z" fill="#428FEC"/>
<path d="M48.7052 20.9025C47.741 21.4871 46.8791 22.2258 46.154 23.0893L45.4961 22.7088C46.2218 21.8431 47.0844 21.102 48.0496 20.5152L66.4286 9.92969L67.0842 10.3079L48.7052 20.9025Z" fill="#428FEC"/>
<path d="M51.9327 22.7638C50.9673 23.3476 50.1045 24.0864 49.3792 24.9506L48.7236 24.5701C49.449 23.7066 50.3118 22.9685 51.2772 22.3856L69.6539 11.8047L70.3118 12.1829L51.9327 22.7638Z" fill="#428FEC"/>
<path d="M43.8686 18.1076C42.9038 18.6886 42.0412 19.4243 41.3151 20.2852L40.6572 19.9047C41.3837 19.0422 42.2462 18.3044 43.2108 17.7202L61.5898 7.13477L62.2453 7.51298L43.8686 18.1076Z" fill="#428FEC"/>
<path d="M40.6407 16.2472C39.6762 16.8313 38.8136 17.5692 38.0872 18.4317L37.4316 18.0535C38.1564 17.1894 39.0193 16.4512 39.9852 15.869L58.3642 5.28125L59.0198 5.65946L40.6407 16.2472Z" fill="#428FEC"/>
<path d="M37.4178 14.3836C36.4513 14.9669 35.5871 15.7049 34.8597 16.5681L34.2041 16.1899C34.9295 15.3264 35.7922 14.5883 36.7576 14.0054L55.1344 3.41992L55.7899 3.79814L37.4178 14.3836Z" fill="#428FEC"/>
<path d="M35.8032 13.4523C34.8402 14.0368 33.9793 14.7747 33.2542 15.6368L32.5986 15.2586C33.3234 14.3945 34.1862 13.6563 35.1522 13.0741L53.5312 2.48633L54.1822 2.86454L35.8032 13.4523Z" fill="#428FEC"/>
<path d="M39.0307 15.3152C38.0653 15.899 37.2025 16.6378 36.4772 17.502L35.8193 17.1215C36.5458 16.259 37.4083 15.5211 38.3729 14.937L56.7519 4.35156L57.4074 4.72978L39.0307 15.3152Z" fill="#428FEC"/>
<path d="M42.256 17.1778C41.2895 17.7621 40.4267 18.5026 39.7024 19.3692L39.0469 18.9887C39.7729 18.1259 40.6355 17.3879 41.6004 16.8042L59.9771 6.21875L60.6327 6.59696L42.256 17.1778Z" fill="#428FEC"/>
<path d="M85.4886 19.2973L85.3946 19.0566L80.7666 21.8325L85.4886 19.2973Z" fill="#428FEC"/>
<path d="M85.821 20.1523L77.9014 24.8376L85.8989 20.3541L85.821 20.1523Z" fill="#428FEC"/>
<path d="M60.0107 36.9551L57.1064 40.0954L61.3883 37.6175L60.0107 36.9551Z" fill="#428FEC"/>
</svg>
