<svg width="536" height="550" viewBox="0 0 536 550" fill="none" xmlns="http://www.w3.org/2000/svg">
<path d="M381.073 455.646C471.562 382.681 466.493 240.814 466.493 240.814C466.493 240.814 464.458 209.29 449.545 174.798C434.631 140.306 376.418 69.8407 262.88 63.9172C120.957 56.5129 68.1629 164.318 62.8185 266.338C58.543 347.953 107.562 415.202 132.605 438.625C177.724 474.7 290.584 528.611 381.073 455.646Z" fill="url(#paint0_linear_3924_2499)" fill-opacity="0.4"/>
<path d="M443.842 330.122C465.264 228.184 384.167 135.886 384.167 135.886C384.167 135.886 365.531 115.908 336.536 101.472C307.541 87.0363 229.492 73.7775 149.254 136.228C48.9573 214.291 72.1693 317.571 124.391 389.203C166.169 446.509 236.223 462.988 266.028 464.064C316.373 461.891 422.419 432.061 443.842 330.122Z" fill="url(#paint1_linear_3924_2499)" fill-opacity="0.6"/>
<path d="M302.987 417.397C380.776 391.923 411.724 300.471 411.724 300.471C411.724 300.471 417.997 279.939 416.429 254.535C414.86 229.132 393.218 170.808 319.193 140.741C226.663 103.158 165.498 159.533 137.269 223.216C114.685 274.162 130.995 328.31 141.974 349.016C163.233 382.423 225.199 442.87 302.987 417.397Z" fill="url(#paint2_linear_3924_2499)"/>
<circle cx="44.9351" cy="196.652" r="7" fill="url(#paint3_linear_3924_2499)"/>
<circle cx="158.935" cy="80.6523" r="7" fill="url(#paint4_linear_3924_2499)"/>
<circle cx="104.935" cy="293.652" r="7" fill="url(#paint5_linear_3924_2499)"/>
<circle cx="452.935" cy="87.6523" r="7" fill="url(#paint6_linear_3924_2499)"/>
<circle cx="436.935" cy="195.652" r="7" fill="url(#paint7_linear_3924_2499)"/>
<circle cx="125.935" cy="463.652" r="7" fill="url(#paint8_linear_3924_2499)"/>
<circle cx="512.935" cy="342.652" r="7" fill="url(#paint9_linear_3924_2499)"/>
<g filter="url(#filter0_bd_3924_2499)">
<ellipse cx="270.435" cy="276.152" rx="93.5" ry="92.5" fill="url(#paint10_linear_3924_2499)" fill-opacity="0.7" shape-rendering="crispEdges"/>
<path d="M363.435 276.152C363.435 326.957 321.803 368.152 270.435 368.152C219.067 368.152 177.435 326.957 177.435 276.152C177.435 225.347 219.067 184.152 270.435 184.152C321.803 184.152 363.435 225.347 363.435 276.152Z" stroke="url(#paint11_linear_3924_2499)" shape-rendering="crispEdges"/>
</g>
<path d="M266.409 270.316C266.409 267.616 264.861 265.6 261.801 264.34C264.177 262.972 265.365 261.1 265.365 258.76C265.365 256.78 264.609 255.268 263.133 254.152C261.657 253.036 259.785 252.46 257.517 252.46C255.249 252.46 253.341 253.036 251.865 254.152C250.389 255.268 249.669 256.78 249.669 258.76C249.669 261.1 250.857 262.936 253.269 264.34C250.137 265.6 248.589 267.58 248.589 270.316C248.589 274.456 252.297 277.084 257.517 277.084C262.701 277.084 266.409 274.456 266.409 270.316ZM254.205 258.976C254.205 257.356 255.609 256.384 257.517 256.384C259.425 256.384 260.829 257.356 260.829 258.94C260.829 260.416 259.785 261.244 257.517 262.288C255.249 261.244 254.205 260.416 254.205 258.976ZM261.585 270.136C261.585 271.9 260.145 273.124 257.517 273.124C254.889 273.124 253.449 271.9 253.449 270.136C253.449 268.372 254.781 267.4 257.517 266.392C260.253 267.364 261.585 268.3 261.585 270.136ZM286.781 268.84C286.781 264.016 282.857 261.316 278.753 261.316C277.853 261.316 276.953 261.424 276.053 261.604V257.284H285.413V252.892H271.373V265.492H276.917C280.085 265.492 281.777 266.644 281.777 268.912C281.777 271.18 279.977 272.584 277.529 272.584C275.225 272.584 273.641 271.468 272.237 269.308L268.853 271.684C270.473 274.96 273.641 277.084 277.673 277.084C282.749 277.084 286.781 273.7 286.781 268.84Z" fill="white"/>
<path d="M228.693 292.092L226.341 298.3L223.573 291.9H222.853L220.085 298.332L217.733 292.092H215.333L219.557 302.844H220.261L223.221 296.22L226.165 302.844H226.869L231.093 292.092H228.693ZM238.895 299.42C238.991 299.02 239.039 298.62 239.039 298.236C239.039 296.172 237.503 294.556 235.311 294.556C233.023 294.508 231.119 296.412 231.167 298.7C231.119 300.988 233.055 302.892 235.503 302.844C236.671 302.844 237.727 302.444 238.671 301.66L237.775 300.188C237.087 300.716 236.351 300.988 235.567 300.988C234.415 300.988 233.599 300.428 233.343 299.42H238.895ZM233.343 297.9C233.583 296.924 234.319 296.3 235.231 296.3C236.175 296.3 236.927 296.924 236.943 297.9H233.343ZM240.724 302.652H242.884V290.652H240.724V302.652ZM245.021 302.652H247.181V290.652H245.021V302.652ZM256.598 297.74C256.598 295.82 255.462 294.556 253.622 294.556C252.678 294.556 251.862 294.892 251.302 295.452V294.732H249.318V302.652H251.478V298.028C251.478 297.116 252.102 296.492 252.982 296.492C253.862 296.492 254.454 297.116 254.454 298.028V302.652H256.598V297.74ZM265.957 299.42C266.053 299.02 266.101 298.62 266.101 298.236C266.101 296.172 264.565 294.556 262.373 294.556C260.085 294.508 258.181 296.412 258.229 298.7C258.181 300.988 260.117 302.892 262.565 302.844C263.733 302.844 264.789 302.444 265.733 301.66L264.837 300.188C264.149 300.716 263.413 300.988 262.629 300.988C261.477 300.988 260.661 300.428 260.405 299.42H265.957ZM260.405 297.9C260.645 296.924 261.381 296.3 262.293 296.3C263.237 296.3 263.989 296.924 264.005 297.9H260.405ZM267.067 301.308C267.787 302.268 268.955 302.844 270.347 302.844C271.243 302.844 271.979 302.62 272.555 302.172C273.147 301.724 273.435 301.1 273.435 300.316C273.435 299.148 272.747 298.524 271.211 297.9L270.443 297.58C269.819 297.324 269.611 297.18 269.611 296.876C269.611 296.508 269.931 296.316 270.459 296.316C271.115 296.316 271.707 296.572 272.235 297.068L273.323 295.74C272.603 294.956 271.659 294.556 270.475 294.556C268.747 294.556 267.563 295.436 267.563 296.924C267.563 298.092 268.267 298.748 269.723 299.34L270.571 299.692C271.163 299.948 271.387 300.076 271.387 300.412C271.387 300.844 270.955 301.068 270.379 301.068C269.595 301.068 268.843 300.716 268.155 299.996L267.067 301.308ZM274.348 301.308C275.068 302.268 276.236 302.844 277.628 302.844C278.524 302.844 279.26 302.62 279.836 302.172C280.428 301.724 280.716 301.1 280.716 300.316C280.716 299.148 280.028 298.524 278.492 297.9L277.724 297.58C277.1 297.324 276.892 297.18 276.892 296.876C276.892 296.508 277.212 296.316 277.74 296.316C278.396 296.316 278.988 296.572 279.516 297.068L280.604 295.74C279.884 294.956 278.94 294.556 277.756 294.556C276.028 294.556 274.844 295.436 274.844 296.924C274.844 298.092 275.548 298.748 277.004 299.34L277.852 299.692C278.444 299.948 278.668 300.076 278.668 300.412C278.668 300.844 278.236 301.068 277.66 301.068C276.876 301.068 276.124 300.716 275.436 299.996L274.348 301.308ZM286.113 301.308C286.833 302.268 288.001 302.844 289.393 302.844C290.289 302.844 291.025 302.62 291.601 302.172C292.193 301.724 292.481 301.1 292.481 300.316C292.481 299.148 291.793 298.524 290.257 297.9L289.489 297.58C288.865 297.324 288.657 297.18 288.657 296.876C288.657 296.508 288.977 296.316 289.505 296.316C290.161 296.316 290.753 296.572 291.281 297.068L292.369 295.74C291.649 294.956 290.705 294.556 289.521 294.556C287.793 294.556 286.609 295.436 286.609 296.924C286.609 298.092 287.313 298.748 288.769 299.34L289.617 299.692C290.209 299.948 290.433 300.076 290.433 300.412C290.433 300.844 290.001 301.068 289.425 301.068C288.641 301.068 287.889 300.716 287.201 299.996L286.113 301.308ZM293.667 298.684C293.635 300.972 295.587 302.892 297.907 302.844C299.443 302.844 300.659 302.092 301.347 300.876L299.843 299.724C299.331 300.444 298.755 300.86 297.939 300.86C296.723 300.86 295.859 299.948 295.859 298.684C295.859 297.452 296.723 296.524 297.939 296.524C298.771 296.524 299.347 296.956 299.843 297.676L301.347 296.508C300.659 295.292 299.459 294.556 297.907 294.556C295.555 294.556 293.667 296.364 293.667 298.684ZM302.339 298.684C302.291 300.94 304.243 302.876 306.563 302.828C308.883 302.876 310.883 300.94 310.835 298.684C310.883 296.428 308.899 294.524 306.579 294.556C304.259 294.508 302.291 296.428 302.339 298.684ZM308.627 298.7C308.627 299.932 307.747 300.844 306.579 300.844C305.379 300.844 304.531 299.932 304.531 298.7C304.531 297.436 305.379 296.524 306.579 296.524C307.747 296.524 308.627 297.468 308.627 298.7ZM317.385 294.732C317.177 294.668 316.953 294.636 316.681 294.636C315.801 294.636 315.033 295.02 314.505 295.676V294.732H312.521V302.652H314.681V298.7C314.681 297.34 315.513 296.636 316.809 296.636H317.385V294.732ZM325.848 299.42C325.944 299.02 325.992 298.62 325.992 298.236C325.992 296.172 324.456 294.556 322.264 294.556C319.976 294.508 318.072 296.412 318.12 298.7C318.072 300.988 320.008 302.892 322.456 302.844C323.624 302.844 324.68 302.444 325.624 301.66L324.728 300.188C324.04 300.716 323.304 300.988 322.52 300.988C321.368 300.988 320.552 300.428 320.296 299.42H325.848ZM320.296 297.9C320.536 296.924 321.272 296.3 322.184 296.3C323.128 296.3 323.88 296.924 323.896 297.9H320.296Z" fill="white"/>
<defs>
<filter id="filter0_bd_3924_2499" x="-23.0649" y="-16.3477" width="587" height="585" filterUnits="userSpaceOnUse" color-interpolation-filters="sRGB">
<feFlood flood-opacity="0" result="BackgroundImageFix"/>
<feGaussianBlur in="BackgroundImageFix" stdDeviation="100"/>
<feComposite in2="SourceAlpha" operator="in" result="effect1_backgroundBlur_3924_2499"/>
<feColorMatrix in="SourceAlpha" type="matrix" values="0 0 0 0 0 0 0 0 0 0 0 0 0 0 0 0 0 0 127 0" result="hardAlpha"/>
<feOffset dy="-2"/>
<feGaussianBlur stdDeviation="10"/>
<feComposite in2="hardAlpha" operator="out"/>
<feColorMatrix type="matrix" values="0 0 0 0 0 0 0 0 0 0 0 0 0 0 0 0 0 0 0.08 0"/>
<feBlend mode="normal" in2="effect1_backgroundBlur_3924_2499" result="effect2_dropShadow_3924_2499"/>
<feBlend mode="normal" in="SourceGraphic" in2="effect2_dropShadow_3924_2499" result="shape"/>
</filter>
<linearGradient id="paint0_linear_3924_2499" x1="342.061" y1="479.43" x2="92.2109" y2="-16.5841" gradientUnits="userSpaceOnUse">
<stop stop-color="#F9BB68"/>
<stop offset="1" stop-color="white"/>
</linearGradient>
<linearGradient id="paint1_linear_3924_2499" x1="430.406" y1="368.918" x2="-165.746" y2="196.202" gradientUnits="userSpaceOnUse">
<stop stop-color="#FFBF3F"/>
<stop offset="1" stop-color="#FFBF3F" stop-opacity="0"/>
</linearGradient>
<linearGradient id="paint2_linear_3924_2499" x1="271.307" y1="423.496" x2="155.822" y2="32.0968" gradientUnits="userSpaceOnUse">
<stop stop-color="#FFC727"/>
<stop offset="1" stop-color="#FF8C38"/>
</linearGradient>
<linearGradient id="paint3_linear_3924_2499" x1="44.9351" y1="189.652" x2="44.9351" y2="203.652" gradientUnits="userSpaceOnUse">
<stop stop-color="#FFA232"/>
<stop offset="1" stop-color="#FFD176"/>
</linearGradient>
<linearGradient id="paint4_linear_3924_2499" x1="158.935" y1="73.6523" x2="158.935" y2="87.6523" gradientUnits="userSpaceOnUse">
<stop stop-color="#FFA232"/>
<stop offset="1" stop-color="#FFD176"/>
</linearGradient>
<linearGradient id="paint5_linear_3924_2499" x1="104.935" y1="286.652" x2="104.935" y2="300.652" gradientUnits="userSpaceOnUse">
<stop stop-color="#FFA232"/>
<stop offset="1" stop-color="#FFD176"/>
</linearGradient>
<linearGradient id="paint6_linear_3924_2499" x1="452.935" y1="80.6523" x2="452.935" y2="94.6523" gradientUnits="userSpaceOnUse">
<stop stop-color="#FFA232"/>
<stop offset="1" stop-color="#FFD176"/>
</linearGradient>
<linearGradient id="paint7_linear_3924_2499" x1="436.935" y1="188.652" x2="436.935" y2="202.652" gradientUnits="userSpaceOnUse">
<stop stop-color="#FFA232"/>
<stop offset="1" stop-color="#FFD176"/>
</linearGradient>
<linearGradient id="paint8_linear_3924_2499" x1="125.935" y1="456.652" x2="125.935" y2="470.652" gradientUnits="userSpaceOnUse">
<stop stop-color="#FFA232"/>
<stop offset="1" stop-color="#FFD176"/>
</linearGradient>
<linearGradient id="paint9_linear_3924_2499" x1="512.935" y1="335.652" x2="512.935" y2="349.652" gradientUnits="userSpaceOnUse">
<stop stop-color="#FFA232"/>
<stop offset="1" stop-color="#FFD176"/>
</linearGradient>
<linearGradient id="paint10_linear_3924_2499" x1="149.059" y1="117.913" x2="377.282" y2="480.573" gradientUnits="userSpaceOnUse">
<stop stop-color="white"/>
<stop offset="1" stop-color="white" stop-opacity="0.12"/>
</linearGradient>
<linearGradient id="paint11_linear_3924_2499" x1="180.42" y1="190.633" x2="346.335" y2="441.106" gradientUnits="userSpaceOnUse">
<stop stop-color="#FFBD2A"/>
<stop offset="0.452164" stop-color="#FFB12D"/>
<stop offset="0.969934" stop-color="#FFA631"/>
</linearGradient>
</defs>
</svg>
