<svg width="57" height="71" viewBox="0 0 57 71" fill="none" xmlns="http://www.w3.org/2000/svg">
<path d="M23.1014 18.4809C23.2438 16.0297 23.5912 13.5947 24.1399 11.2015C24.6543 9.03713 25.3822 6.83391 26.7459 5.04319C27.9931 3.41261 29.779 2.13145 31.856 1.85969C33.8602 1.61219 35.7383 2.50512 37.2379 3.76687C39.0917 5.32951 40.5136 7.39685 41.8481 9.4011C43.3083 11.6467 44.637 13.9752 45.8275 16.3747C45.8712 16.4524 45.7498 16.5203 45.711 16.4378C44.6776 14.4066 43.4866 12.4595 42.149 10.6143C40.9294 8.8416 39.5573 7.17881 38.0483 5.64494C36.6749 4.30554 34.9279 3.0535 32.9333 2.98556C30.9388 2.91762 29.1238 4.03864 27.9348 5.56245C26.6003 7.27067 25.9209 9.4011 25.4113 11.4781C24.8858 13.7653 24.5434 16.0907 24.3874 18.4323C23.9943 23.2367 23.9021 28.0751 23.7808 32.894C23.7177 35.6262 23.6837 38.3535 23.6546 41.0808C23.6546 42.4623 23.6433 43.8454 23.6206 45.23C23.6735 46.565 23.6216 47.902 23.4653 49.2288C23.4168 49.4957 22.98 49.4715 22.9315 49.2288C22.7696 47.974 22.7096 46.7081 22.752 45.4436C22.752 44.1333 22.7131 42.823 22.7034 41.5079C22.6775 38.9617 22.6678 36.414 22.6743 33.8646C22.6889 28.7302 22.752 23.5958 23.1014 18.4809Z" fill="#263238"/>
<path d="M29.9725 14.8708C30.2248 13.5071 30.6859 11.7358 31.4575 10.6827C32.8503 8.7901 34.3692 9.61509 32.9667 11.7115C31.9423 13.268 31.279 15.0339 31.0256 16.8799C31.0256 16.8799 33.3647 20.2235 36.189 21.8687C36.0677 20.5827 35.7038 18.6075 35.9561 16.7003C36.4996 12.5705 38.9989 12.818 38.3826 16.0792C37.8973 18.7143 37.6837 21.5047 37.8196 22.7131C38.7633 23.3184 39.7769 23.8073 40.8381 24.1689C40.6731 23.6837 40.5033 23.1159 40.314 22.4219C39.3095 18.7191 41.7699 17.569 41.8572 19.646C42.0177 21.4226 42.3426 23.1804 42.8278 24.8969C44.1818 25.3531 45.3028 25.6636 45.9919 25.9063C47.7722 26.5636 49.3625 27.6505 50.6216 29.0704C51.909 27.908 52.9773 26.524 53.776 24.9842C52.9121 24.2417 51.5485 23.1401 49.6558 21.8056C46.1084 19.2966 47.341 16.1325 50.1411 18.1028C52.1745 19.5199 53.7468 22.1501 54.4651 23.4992C55.4222 21.1482 55.9656 18.6493 56.0714 16.1131C53.2858 13.4926 46.3656 9.84803 48.4669 9.84803C50.3401 9.84803 54.5233 12.5899 56.0568 13.6479C56.02 12.9274 55.9422 12.2096 55.8239 11.498C53.1985 9.78009 44.6622 7.10129 46.0259 6.32968C47.5157 5.48528 53.4702 8.24173 55.2706 9.11526C54.9333 7.94528 54.4 6.84096 53.6935 5.84925C50.0635 0.99635 43.5024 -0.682747 40.6683 0.244157C38.6495 0.899298 39.2124 6.02395 38.8048 5.84925C30.6762 2.60751 26.988 4.91749 29.9725 14.8708ZM49.8694 14.3079C50.4469 13.609 53.1063 15.657 52.3395 16.7731C51.5727 17.8893 49.1172 15.1959 49.8597 14.3079H49.8694ZM35.9561 9.94024C36.6549 10.3867 35.6213 12.9782 34.5391 12.192C33.6122 11.5174 35.2427 9.48893 35.9464 9.9354L35.9561 9.94024Z" fill="#FFBF3F"/>
<path d="M37.0091 10.716C37.3731 9.99291 37.7565 9.26012 38.1738 8.57587C38.558 7.88797 39.0065 7.23802 39.5132 6.63471L39.1687 6.20765C39.1202 6.14941 39.2027 6.07176 39.2512 6.13C39.3871 6.28529 39.5181 6.44059 39.6491 6.61529C39.6627 6.6212 39.6748 6.62987 39.6849 6.64073C39.6949 6.65159 39.7025 6.66441 39.7074 6.67838C40.1927 7.28014 40.6779 7.90131 41.1293 8.53219C41.9282 8.71366 42.7157 8.94215 43.4878 9.21645C44.2836 9.47851 45.0747 9.75513 45.8463 10.0851C45.9288 10.1191 45.8851 10.2501 45.8075 10.2161C45.0407 9.87644 44.2642 9.54645 43.4684 9.27954C42.6725 9.01263 41.9543 8.83308 41.1923 8.6147C41.4398 8.96411 41.6776 9.31835 41.9154 9.67747C43.3491 10.1288 44.7433 10.6969 46.0841 11.376C47.4914 12.0457 48.8454 12.8319 50.1945 13.6035C50.2721 13.6472 50.1945 13.7636 50.1217 13.7199C48.7943 12.9451 47.429 12.2373 46.0307 11.5992C44.7253 10.9926 43.3762 10.4879 42.061 9.90555C45.3755 15.0787 47.3604 21.043 50.0198 26.5704C50.0537 26.6481 49.9324 26.716 49.8984 26.6335C49.088 24.6923 48.1514 22.8094 47.2682 20.9022C46.4772 19.194 45.7007 17.4712 44.9097 15.763C44.6767 15.2777 44.4244 14.7633 44.1914 14.2635C44.337 17.0248 44.2788 19.8346 44.7301 22.5619C44.7329 22.572 44.7333 22.5826 44.7313 22.5929C44.7293 22.6031 44.725 22.6128 44.7186 22.6211C44.7123 22.6294 44.7041 22.6362 44.6947 22.6408C44.6854 22.6454 44.6751 22.6479 44.6646 22.6479C44.6541 22.6479 44.6438 22.6454 44.6344 22.6408C44.6251 22.6362 44.6169 22.6294 44.6106 22.6211C44.6042 22.6128 44.5999 22.6031 44.5979 22.5929C44.5959 22.5826 44.5963 22.572 44.5991 22.5619C44.405 19.6065 43.8857 16.7045 43.9051 13.7345C43.9051 13.7345 43.9051 13.7102 43.9051 13.6957C43.3422 12.5698 42.7404 11.4536 42.095 10.3714C40.9982 12.958 39.8432 15.5786 39.3288 18.3545C39.3288 18.4418 39.1784 18.403 39.1978 18.3156C39.9452 15.5349 40.6537 12.7494 41.9785 10.1773C41.2743 9.00683 40.4945 7.88342 39.6443 6.81426C39.2755 7.49852 38.8047 8.14882 38.3874 8.80881C37.97 9.4688 37.5769 10.0948 37.1984 10.75C36.3819 12.1428 35.6886 13.6042 35.1262 15.1176C35.0923 15.2049 34.9564 15.1612 34.9952 15.0787C35.6455 13.6277 36.2861 12.1719 37.0091 10.716Z" fill="#263238"/>
<path d="M10.8908 17.0253C13.0164 14.8949 15.4865 12.0948 18.772 12.0996C21.9457 12.0996 24.28 14.6619 25.6194 17.2922C27.0219 20.0487 27.5266 23.1691 27.9245 26.2021C28.4098 29.837 28.6573 33.4815 28.7641 37.1551C28.8223 39.1885 28.8126 41.2267 28.7641 43.2601C28.7581 45.3222 28.5959 47.3808 28.2788 49.4184C28.2157 49.7484 27.6916 49.7581 27.6722 49.4184C27.5751 47.7053 27.6431 45.9874 27.6722 44.2695C27.7013 42.5516 27.6722 40.8967 27.5945 39.2079C27.4683 35.8109 27.2208 32.3896 26.8181 29.0168C26.4686 26.0565 26.192 23.0089 25.304 20.1457C24.5081 17.5106 23.0085 14.5697 20.3928 13.439C16.8211 11.8909 13.3319 14.7153 10.9976 17.103C10.9345 17.166 10.8278 17.0787 10.8908 17.0253Z" fill="#263238"/>
<path d="M0.0443401 21.7812C0.0443401 22.2179 0.083163 22.6498 0.11228 23.0672C1.13624 22.3026 2.33309 21.8025 3.59666 21.6113C6.61517 21.291 6.42105 23.5864 4.4071 23.6835C2.98811 23.7001 1.58451 23.9798 0.267573 24.5085C0.752863 28.4976 1.85447 31.7005 2.01947 31.7442C4.69726 31.5911 7.36133 31.2538 9.99278 30.7348C9.24058 29.1333 7.53236 27.0126 8.40589 26.8524C9.27941 26.6923 10.2257 28.5752 10.711 30.6037C12.6912 30.2256 14.6384 29.6918 16.5345 29.0071C15.2048 27.857 13.1375 26.4302 13.9382 25.8188C14.7389 25.2073 16.3646 27.2213 17.3352 28.6868C18.2257 28.3256 19.0683 27.8562 19.8442 27.2892C18.0535 24.6638 13.6955 24.1251 14.2633 22.2276C14.8311 20.3301 18.9124 22.9653 20.742 26.4788C22.8918 24.2513 23.5227 21.092 23.2946 18.3987C21.4214 18.1803 17.8205 18.5734 18.0826 17.2292C18.3446 15.8849 20.9458 16.1421 23.0762 16.9234C22.8788 15.8574 22.4515 14.8473 21.8242 13.9631C19.8539 11.4251 13.8266 14.6522 13.8266 14.6522C13.8266 14.6522 14.472 8.59584 12.1766 7.54761C10.8517 6.94585 8.51265 6.9507 6.1687 8.33378C7.48383 8.44054 9.08044 8.85789 9.71132 9.78965C10.5315 10.9543 9.22603 11.5852 8.42045 11.0514C7.84295 10.668 6.76561 9.46935 4.81959 9.31406C3.98856 10.0209 3.25719 10.8371 2.64549 11.7405C2.42226 12.0511 2.21844 12.3811 2.00976 12.7402C3.1228 12.241 4.33226 11.9935 5.55191 12.0153C6.77157 12.0371 7.9714 12.3277 9.06588 12.8664C11.6573 14.1136 10.2015 16.8409 7.93516 15.7878C5.66885 14.7348 3.56755 13.7011 1.16536 14.298C0.32258 16.4454 -0.0705267 18.7429 0.01037 21.0484C1.17906 20.1963 2.49532 19.5678 3.89269 19.1946C6.48899 18.5103 7.28972 20.0632 4.42166 20.3496C2.88046 20.5245 1.39107 21.0116 0.0443401 21.7812ZM3.19872 17.6125C3.01917 16.773 4.86327 16.5303 5.169 17.2146C5.42621 17.7969 3.37828 18.4812 3.19872 17.6125ZM18.9367 22.2713C19.1114 21.8151 20.344 22.3344 20.2276 22.907C20.0965 23.6738 18.7862 22.7323 18.9367 22.2713ZM10.2403 25.2219C11.1381 24.8628 12.5406 27.0951 11.5603 27.6095C10.58 28.1239 9.52205 25.5179 10.2597 25.2219H10.2403Z" fill="#FFBF3F"/>
<path d="M2.36816 31.3027C3.72212 29.0412 5.06152 26.7652 6.48342 24.5426C7.14342 23.5089 7.83738 22.4946 8.55561 21.4998L8.23532 21.427L7.69665 21.3202C7.2793 21.2474 6.86195 21.1892 6.43975 21.1455C6.01754 21.1018 5.64872 21.0824 5.25078 21.0776C4.82737 21.0564 4.40289 21.0791 3.98418 21.1455C3.97517 21.1455 3.96653 21.1419 3.96016 21.1356C3.95379 21.1292 3.95021 21.1206 3.95021 21.1116C3.95021 21.1026 3.95379 21.0939 3.96016 21.0875C3.96653 21.0812 3.97517 21.0776 3.98418 21.0776C4.40638 21.0776 4.83829 21.0388 5.26049 21.0339C5.68269 21.0291 6.08548 21.0339 6.49313 21.063C6.90077 21.0921 7.26474 21.1261 7.64326 21.1844C7.85679 21.2183 8.06547 21.2523 8.27414 21.296C8.40032 21.3202 8.53134 21.3396 8.65752 21.3736C9.39031 20.3691 10.1522 19.3791 10.9384 18.4133C8.59129 17.2745 6.0922 16.4801 3.5183 16.0548C3.47462 16.0548 3.5183 15.982 3.5183 15.9917C6.1262 16.352 8.66124 17.1201 11.0306 18.2678C11.4625 17.7388 11.8993 17.2098 12.336 16.6857C12.7728 16.1616 13.3503 15.521 13.7919 14.895C13.821 14.8562 13.8792 14.895 13.8453 14.9338C13.2413 15.6007 12.6727 16.2989 12.1419 17.0254C13.1104 17.699 14.0314 18.4384 14.8983 19.2383C15.7945 20.0342 16.6713 20.8576 17.5286 21.7085C17.5626 21.7376 17.5286 21.791 17.4801 21.757C16.6357 20.9174 15.7622 20.1167 14.8498 19.3597C13.9375 18.6026 12.9717 17.9038 12.0497 17.1467C11.841 17.4234 11.6323 17.7 11.4188 17.9717C11.3121 18.1125 11.2101 18.2532 11.1034 18.3891C11.1034 18.3891 11.1034 18.3891 11.1034 18.4182L10.0503 19.7964C10.4597 20.3905 10.8107 21.0227 11.0985 21.6842C11.3994 22.3248 11.6663 22.9848 11.909 23.6254C12.3929 25.0081 12.7693 26.4261 13.0348 27.8668C13.0348 27.9105 12.9815 27.9299 12.9717 27.8668C12.6831 26.4487 12.2706 25.0587 11.7391 23.7127C11.4771 23.0187 11.1762 22.3442 10.8656 21.6696C10.555 20.9951 10.2444 20.471 9.98236 19.8546C9.68148 20.2574 9.37575 20.6602 9.07972 21.0679L8.82737 21.427C8.82737 21.4561 8.82737 21.4901 8.79825 21.4901C7.8665 22.7858 6.98327 24.1155 6.12431 25.4598C6.17595 25.5529 6.21511 25.6524 6.24078 25.7558C6.29416 25.9159 6.34754 26.0809 6.39607 26.2411C6.49257 26.5729 6.57034 26.9099 6.62901 27.2505C6.68724 27.5708 6.73577 27.8911 6.76489 28.2211C6.76787 28.5865 6.79544 28.9513 6.84739 29.313C6.84739 29.3663 6.76974 29.3712 6.77945 29.313C6.80375 28.9699 6.77924 28.6252 6.70665 28.289C6.65813 27.9396 6.59019 27.5902 6.51254 27.2505C6.43489 26.9108 6.35239 26.6293 6.26019 26.3236C6.21651 26.1683 6.16798 26.0178 6.1146 25.8674C6.06122 25.717 6.04666 25.7024 6.01754 25.6151C5.61637 26.2621 5.21843 26.8962 4.82373 27.5174C4.04727 28.784 3.27565 30.0554 2.49434 31.3221C2.4361 31.424 2.32934 31.3657 2.36816 31.3027Z" fill="#263238"/>
<path d="M23.2417 48.6768C23.2757 47.3956 23.4795 46.1047 23.6154 44.8284C23.7513 43.5521 23.9017 42.2661 24.0376 40.9849C24.3045 38.5197 24.4501 35.9913 25.0082 33.5746C25.4324 31.4647 26.4826 29.5317 28.0218 28.0277C28.819 27.2336 29.8633 26.7354 30.9821 26.6155C32.1073 26.5823 33.2117 26.9237 34.1219 27.5861C35.1592 28.3499 36.053 29.2913 36.7619 30.3668C37.5282 31.4308 38.2174 32.5482 38.8244 33.7104C38.8244 33.7541 38.7758 33.7832 38.7516 33.7395C37.6079 31.8007 36.0942 30.1057 34.2966 28.7508C33.4969 28.0898 32.519 27.6811 31.4868 27.5764C30.4779 27.5717 29.5081 27.9659 28.7886 28.6731C27.2939 29.9737 26.4252 31.8857 25.9108 33.7638C25.2993 35.9913 25.1052 38.3304 24.7995 40.6113C24.6151 41.9701 24.4452 43.3289 24.2657 44.6828C24.0861 46.0368 23.9745 47.415 23.6882 48.7496C23.6785 48.8088 23.6458 48.8617 23.5971 48.8968C23.5484 48.9318 23.4878 48.9461 23.4286 48.9364C23.3693 48.9268 23.3164 48.894 23.2814 48.8453C23.2463 48.7966 23.2321 48.736 23.2417 48.6768Z" fill="#263238"/>
<path d="M29.5496 38.7172C29.9449 39.2555 30.4137 39.7357 30.9423 40.1439C30.7337 38.8919 30.457 36.6692 31.1073 35.4851C32.0779 33.6459 33.2523 34.5631 32.6651 36.1597C32.0736 37.6005 31.7449 39.1356 31.6945 40.6923C33.0292 41.5302 34.4598 42.2048 35.9554 42.7014C35.7977 41.9816 35.7503 41.242 35.8146 40.5079C36.0136 38.5425 37.518 38.5667 37.1249 40.6244C36.9792 41.4166 36.9109 42.2211 36.9211 43.0265C39.092 43.6959 41.3116 44.1956 43.5599 44.5212C44.7078 43.0342 45.6331 41.388 46.3066 39.6344C44.7052 39.2316 41.4537 39.1491 41.5362 37.9989C41.6284 36.4606 44.7634 37.6447 46.6026 38.7608C47.0211 37.4225 47.2082 36.0226 47.1559 34.6213C45.7168 34.216 44.2374 33.9703 42.7446 33.8885C39.4495 33.6071 39.6096 31.7387 41.9972 31.7824C43.7588 31.8115 45.9863 32.8888 47.0443 33.4518C46.3551 28.9725 42.9387 26.0996 40.1968 25.9929C35.5914 25.8036 37.2463 31.5397 37.2463 31.5397C37.2463 31.5397 34.1258 29.3414 31.1801 29.3996C28.2344 29.4578 26.4 34.335 29.5496 38.7172ZM41.8517 30.4333C41.7497 29.7878 43.7928 29.6325 43.9093 30.4575C44.0355 31.3893 41.9536 31.0981 41.8517 30.4333ZM45.1419 37.1545C45.0982 36.7372 45.9863 36.6692 46.1853 37.1933C46.3406 37.5379 45.1953 37.5719 45.1419 37.1545ZM34.0773 37.5476C34.7713 37.6447 35.1692 40.1294 33.9705 40.0808C33.0825 40.042 33.495 37.4651 34.0967 37.5476H34.0773Z" fill="#FFBF3F"/>
<path d="M35.0586 40.3194C35.175 40.0137 35.2769 39.6983 35.374 39.3828C35.2816 39.7023 35.2055 40.0262 35.1459 40.3534C35.1314 40.3922 35.0343 40.3679 35.0586 40.3194Z" fill="#263238"/>
<path d="M36.2769 36.3159C36.4904 35.6801 36.7331 35.0541 36.9806 34.4281C37.1116 34.0932 37.2523 33.7632 37.3979 33.4332C37.5012 33.1418 37.638 32.8633 37.8056 32.6034C37.6624 32.3439 37.5375 32.0747 37.4319 31.7978C37.4319 31.7735 37.4319 31.7541 37.4756 31.7735C37.8155 32.2103 38.116 32.6764 38.3733 33.1663L38.747 33.8215C39.0091 33.8215 39.2711 33.8991 39.5235 33.9428C39.7758 33.9865 40.0767 34.0495 40.3485 34.1126L41.1686 34.3019C41.4404 34.3698 41.7121 34.4572 41.9888 34.5009C42.0518 34.5009 42.0227 34.6125 41.9888 34.5834C41.707 34.4868 41.4182 34.4122 41.1249 34.3601C40.8629 34.3068 40.596 34.2582 40.3291 34.2194C40.0622 34.1806 39.7904 34.1466 39.5235 34.1224L38.9169 34.069C39.0236 34.2631 39.1401 34.4572 39.2469 34.6513C39.2611 34.683 39.2773 34.7138 39.2954 34.7435C39.5178 34.7406 39.7397 34.7667 39.9554 34.8212C40.1932 34.8648 40.4407 34.9085 40.6688 34.9619C41.1541 35.0687 41.6393 35.1803 42.1246 35.3162C43.0952 35.5928 44.1046 35.9082 45.0898 36.2334C45.1431 36.2334 45.0898 36.3353 45.0558 36.3159C44.0781 35.9861 43.0835 35.7091 42.0761 35.486C41.5908 35.3841 41.1346 35.2725 40.6639 35.1754L39.9505 35.025C39.7657 34.9943 39.5827 34.9538 39.4022 34.9037C39.8874 35.8403 40.3727 36.7914 40.8241 37.762C41.7946 39.8779 42.5857 42.052 43.4058 44.2212C43.4058 44.2746 43.3427 44.3134 43.3233 44.2552C42.531 42.1007 41.6139 39.9942 40.5766 37.9464L40.0185 36.8254C40.0185 36.8982 39.9845 36.9758 39.9699 37.0535C39.9214 37.3107 39.8777 37.5679 39.8341 37.8251C39.7467 38.3104 39.6594 38.8491 39.5817 39.3683C39.3621 40.421 39.2387 41.4914 39.2129 42.5664C39.2129 42.6343 39.111 42.6295 39.1207 42.5664C39.2032 42.0568 39.2032 41.523 39.2372 41.0086C39.2711 40.4942 39.31 39.9313 39.373 39.3926C39.4361 38.8539 39.4992 38.3589 39.5866 37.8445C39.6254 37.5873 39.6739 37.3301 39.7176 37.0778C39.7327 36.8846 39.782 36.6956 39.8632 36.5197C39.5963 35.9762 39.3294 35.4326 39.0527 34.894C38.7761 34.3553 38.5383 33.8846 38.2763 33.3799C38.1647 33.1663 38.0433 32.9528 37.9269 32.7393C37.8414 33.0027 37.7393 33.2604 37.6211 33.5109C37.5047 33.8021 37.3834 34.0932 37.262 34.3844C37 35.025 36.7767 35.6753 36.5098 36.3256C36.1604 37.2476 35.777 38.1891 35.4907 39.1499C35.7237 38.2036 35.9615 37.2476 36.2769 36.3159Z" fill="#263238"/>
<path d="M35.373 39.3482C35.373 39.2754 35.4167 39.1978 35.441 39.125C35.4361 39.2172 35.3973 39.2948 35.373 39.3482Z" fill="#263238"/>
<path d="M15.5386 46.1816L15.8637 53.0388L16.6936 70.7131H34.9308L35.7606 53.0388L36.0857 46.1816H15.5386Z" fill="#428FEC"/>
<path d="M15.5386 46.1816L15.7424 50.5201L35.8577 51.0054L36.0857 46.1816H15.5386Z" fill="#242424"/>
<path d="M14.2388 48.957H37.3823V43.4102H14.2388V48.957Z" fill="#428FEC"/>
</svg>
