<svg width="46" height="77" viewBox="0 0 46 77" fill="none" xmlns="http://www.w3.org/2000/svg">
<path d="M8.75633 21.4375C8.75633 21.4375 7.7118 24.2995 5.50088 24.6929C3.28996 25.0864 -0.613098 20.7759 1.86244 18.5755C4.33797 16.375 7.71528 19.8777 8.75633 21.4375Z" fill="#FFBF3F" stroke="#263238" stroke-linecap="round" stroke-linejoin="round"/>
<path d="M12.141 7.38106C12.141 7.38106 8.88553 15.3195 10.1877 19.219C11.4899 23.1186 19.5571 25.998 21.9004 20.9182C24.2436 15.8383 19.0383 8.68323 17.0851 7.11992C15.1318 5.55661 12.7921 6.07888 12.141 7.38106Z" fill="#FFBF3F" stroke="#263238" stroke-linecap="round" stroke-linejoin="round"/>
<path d="M31.1426 10.7656C31.1426 10.7656 25.5405 15.842 24.8964 20.9184C24.2522 25.9948 28.0299 27.8158 31.9225 27.1647C35.8152 26.5136 37.7789 16.6219 36.609 12.0678C35.4391 7.51362 31.1426 10.7656 31.1426 10.7656Z" fill="#FFBF3F" stroke="#263238" stroke-linecap="round" stroke-linejoin="round"/>
<path d="M32.1789 38.8809C32.1789 38.8809 25.9326 39.142 25.6714 42.1328C25.4103 45.1237 28.4046 45.7782 31.3989 43.1774C34.3933 40.5765 34.7832 39.0062 32.1789 38.8809Z" fill="#FFBF3F" stroke="#263238" stroke-linecap="round" stroke-linejoin="round"/>
<path d="M16.6973 45.125C16.6973 45.125 16.0462 48.2586 13.703 49.4215C11.3597 50.5844 7.19555 48.1193 9.40995 44.3451C11.6243 40.5709 15.5274 43.5652 16.6973 45.125Z" fill="#FFBF3F" stroke="#263238" stroke-linecap="round" stroke-linejoin="round"/>
<path d="M11.2294 35.3646C11.2294 35.3646 10.0596 32.7602 5.50194 34.4524C0.94431 36.1445 -0.87317 38.7489 1.98884 39.675C4.85085 40.6012 11.2294 35.3646 11.2294 35.3646Z" fill="#FFBF3F" stroke="#263238" stroke-linecap="round" stroke-linejoin="round"/>
<path d="M24.2438 4.13011C24.2438 4.13011 25.0237 5.95106 26.587 5.56111C28.1503 5.17115 28.5368 2.82792 31.0123 3.47205C33.4879 4.11617 35.5665 6.98515 35.5665 5.68297C35.5665 4.38079 32.4329 1 28.9302 1C25.4276 1 24.3726 2.43797 24.2438 4.13011Z" fill="#FFBF3F" stroke="#263238" stroke-linecap="round" stroke-linejoin="round"/>
<path d="M17.8074 23.7871C17.8074 23.7871 20.5301 31.7603 21.1116 38.5637C21.693 45.3671 21.1116 56.2615 21.1116 56.2615" stroke="#263238" stroke-linecap="round" stroke-linejoin="round"/>
<path d="M27.338 26.5117C27.338 26.5117 24.2253 35.6513 23.4489 41.4833C22.6725 47.3153 22.474 56.2634 22.474 56.2634" stroke="#263238" stroke-linecap="round" stroke-linejoin="round"/>
<path d="M25.7791 42.8438C25.7791 42.8438 24.4177 43.2337 23.6378 56.4574" stroke="#263238" stroke-linecap="round" stroke-linejoin="round"/>
<path d="M16.6942 45.1235C16.6942 45.1235 17.9999 44.0093 18.7833 46.5371C19.5667 49.0648 19.1732 56.0667 19.1732 56.0667" stroke="#263238" stroke-linecap="round" stroke-linejoin="round"/>
<path d="M20.059 43.8711C21.0791 49.5742 20.139 55.8727 20.139 55.8727" stroke="#263238" stroke-linecap="round" stroke-linejoin="round"/>
<path d="M11.2301 35.364C11.2301 35.364 16.8357 34.2881 19.1685 40.5101C19.3999 41.1331 19.5952 41.769 19.7535 42.4146" stroke="#263238" stroke-linecap="round" stroke-linejoin="round"/>
<path d="M34.6141 29.3343C34.6141 29.3343 35.7875 26.7334 40.3416 28.4256C44.8958 30.1177 46.7202 32.7186 43.8547 33.6308C40.9892 34.543 34.6141 29.3343 34.6141 29.3343Z" fill="#FFBF3F" stroke="#263238" stroke-linecap="round" stroke-linejoin="round"/>
<path d="M29.6345 30.4766C28.5099 31.246 27.4271 32.489 26.682 34.4841C24.3457 40.706 24.6138 56.071 24.6138 56.071" stroke="#263238" stroke-linecap="round" stroke-linejoin="round"/>
<path d="M34.6151 29.3349C33.2982 29.1512 31.9561 29.3344 30.7365 29.8642" stroke="#263238" stroke-linecap="round" stroke-linejoin="round"/>
<path d="M14.8964 25.4082C16.3571 27.1743 17.4764 29.1968 18.1971 31.3725C21.3063 40.3171 22.4727 51.7895 21.8912 56.0686" stroke="#263238" stroke-linecap="round" stroke-linejoin="round"/>
<path d="M8.75586 21.4375C8.75586 21.4375 11.4682 21.8623 14.2153 24.6651" stroke="#263238" stroke-linecap="round" stroke-linejoin="round"/>
<path d="M22.7978 33.7812C22.6098 45.0691 22.474 56.263 22.474 56.263" stroke="#263238" stroke-linecap="round" stroke-linejoin="round"/>
<path d="M24.2447 4.13078C24.2447 4.13078 23.6389 3.56325 23.2524 13.6743C23.0992 17.6052 22.9495 24.9099 22.8207 32.3748" stroke="#263238" stroke-linecap="round" stroke-linejoin="round"/>
<path d="M28.0792 76.0986H16.6764C16.0863 76.0988 15.5173 75.8792 15.0802 75.4827C14.6432 75.0862 14.3694 74.5412 14.3123 73.9538L12.5714 55.873H32.212L30.4712 73.9538C30.4136 74.546 30.1359 75.095 29.6929 75.4922C29.25 75.8893 28.6741 76.1058 28.0792 76.0986Z" fill="#428FEC"/>
</svg>
