<svg width="61" height="53" viewBox="0 0 61 53" fill="none" xmlns="http://www.w3.org/2000/svg">
<path d="M10.6057 52.8221L52.3461 53C62.4912 45.0348 63.5385 33.231 56.3024 26.0776C51.9227 21.7504 46.3603 22.6224 41.0635 21.9334H41.0485C39.2018 21.6828 37.3928 21.2644 35.674 20.3573C30.2218 17.4809 27.155 10.6933 22.5573 4.98313C21.986 4.26904 21.3897 3.57248 20.7608 2.90099C16.9874 -1.12798 9.4857 -1.25827 5.55194 4.40433C-4.43028 18.7939 0.142399 40.2241 10.6057 52.8221Z" fill="#FFC727"/>
<path opacity="0.1" d="M9.67846 19.8918C10.7734 37.0174 30.5499 43.4091 42.9024 38.2802C53.6413 33.8178 50.1335 23.6376 41.0633 21.9338H41.0483C39.2017 21.6833 37.3926 21.2649 35.6738 20.3578C30.2217 17.4814 27.1549 10.6938 22.5571 4.98362C15.7219 1.43072 8.87667 7.3539 9.67846 19.8918Z" fill="black"/>
</svg>
