<svg width="65" height="83" viewBox="0 0 65 83" fill="none" xmlns="http://www.w3.org/2000/svg">
<path d="M32.5083 -26H32.0029V31.3395H32.5083V-26Z" fill="#263238"/>
<path d="M54.2585 52.5527L52.4898 56.4437H12.0131L10.2495 52.5527L27.4812 40.627H37.0268L54.2585 52.5527Z" fill="#FFC727"/>
<path d="M38.2221 29.1367L37.0245 40.6279H27.4789L26.2812 29.1367H38.2221Z" fill="#FFC727"/>
<path d="M54.2585 52.5527L52.4848 56.4438H12.0131L10.2495 52.5527H54.2585Z" fill="#FFC727"/>
<path opacity="0.1" d="M54.2585 52.5527L52.4848 56.4438H12.0131L10.2495 52.5527H54.2585Z" fill="black"/>
<path opacity="0.1" d="M27.4789 40.628L27.2363 38.2984L37.3732 37.2676L37.0245 40.628H27.4789Z" fill="black"/>
<path opacity="0.2" d="M64.5 66.2475C64.5 66.2475 56.1015 82.893 32.25 82.893C8.39854 82.893 0 66.2475 0 66.2475L12.0268 56.4492H52.453L64.5 66.2475Z" fill="#FFC727"/>
<path opacity="0.2" d="M58.8018 64.6254C58.8018 64.6254 51.8687 77.0868 32.2569 77.0868C12.6452 77.0868 5.70703 64.6254 5.70703 64.6254L15.6064 56.4492H48.9024L58.8018 64.6254Z" fill="#FFC727"/>
</svg>
